<svg xmlns="http://www.w3.org/2000/svg" width="18.043" height="14.987" viewBox="0 0 18.043 14.987">
  <g id="Group_420" data-name="Group 420" transform="translate(-19 -43.75)">
    <path id="Path_7903" data-name="Path 7903" d="M17.029,47.752l.028.006H4.983l3.8-3.8a1,1,0,0,0,0-1.4l-.591-.591a.988.988,0,0,0-1.394,0L.288,48.467a.995.995,0,0,0,0,1.4l6.506,6.506a.989.989,0,0,0,1.394,0l.591-.591a.977.977,0,0,0,.288-.7.948.948,0,0,0-.288-.684L4.941,50.576h12.1a1.023,1.023,0,0,0,1-1.012v-.836A1,1,0,0,0,17.029,47.752Z" transform="translate(19 2.076)" fill="#fff"/>
  </g>
</svg>
