<svg id="child" xmlns="http://www.w3.org/2000/svg" width="18.166" height="24.222" viewBox="0 0 18.166 24.222">
  <g id="Group_410" data-name="Group 410">
    <path id="Path_210" data-name="Path 210" d="M81.755,12.576,78.51,8.926A5.551,5.551,0,0,0,75.572,7.2a4.036,4.036,0,1,0-4.955,0,5.55,5.55,0,0,0-2.938,1.726l-3.224,3.627a1.514,1.514,0,1,0,2.157,2.124L69.057,12v3.43l-2.436,2.321a2.016,2.016,0,0,0,.011,2.864L70,23.777a1.514,1.514,0,0,0,2.142-2.14l-1.872-1.872,1.522-1.6h2.6l1.522,1.6-1.871,1.873a1.514,1.514,0,0,0,2.128,2.153l3.4-3.187a2.017,2.017,0,0,0-.009-2.863l-2.427-2.313V12l2.461,2.7a1.514,1.514,0,0,0,2.585-1.07A1.475,1.475,0,0,0,81.755,12.576Zm-7.6,4.581h-2.12a2.531,2.531,0,0,0-1.967-1.968v-1.06h6.055v1.06h0A2.532,2.532,0,0,0,74.154,17.156Z" transform="translate(-64.011)" fill="#187da3"/>
  </g>
</svg>
