<svg id="baby_girl" xmlns="http://www.w3.org/2000/svg" width="16.25" height="23.825" viewBox="0 0 16.25 23.825">
  <path id="Path_211" data-name="Path 211" d="M97.025,11.411,92.47,6.856l-.054-.219a3.947,3.947,0,0,0,.975-1.908,2.564,2.564,0,0,1,1.938,2.483h1.4a3.961,3.961,0,0,0-3.311-3.9,3.955,3.955,0,0,0-7.8,0,3.961,3.961,0,0,0-3.311,3.9h1.4A2.564,2.564,0,0,1,85.634,4.73a3.947,3.947,0,0,0,.975,1.908l-.054.219L82,11.411a2.1,2.1,0,0,0,0,2.961,2.076,2.076,0,0,0,2.624.274L83.6,18.782l.408.272a6.118,6.118,0,0,0,2.016.721v1.955a2.093,2.093,0,0,0,3.49,1.559A2.093,2.093,0,0,0,93,21.731V19.776a6.118,6.118,0,0,0,2.016-.721l.408-.272L94.4,14.647a2.094,2.094,0,0,0,2.624-3.235Zm-11.772.695-1.279,1.279a.7.7,0,0,1-.987-.987L85.9,9.481Zm3.561,9.624a.7.7,0,1,1-1.4,0V20c.42.045.885.079,1.4.1Zm2.792,0a.7.7,0,1,1-1.4,0V20.091c.511-.016.976-.05,1.4-.1ZM89.512,6.515A2.558,2.558,0,0,1,87.324,2.63a3.97,3.97,0,0,0,1.464,1.179,8.53,8.53,0,0,0,3.195.816A2.564,2.564,0,0,1,89.512,6.515Zm6.526,6.871a.7.7,0,0,1-.987,0l-1.279-1.279L93.12,9.481,96.038,12.4A.694.694,0,0,1,96.038,13.386Z" transform="translate(-81.387)" fill="#ad85fb"/>
</svg>
