<svg xmlns="http://www.w3.org/2000/svg" xmlns:xlink="http://www.w3.org/1999/xlink" width="23.828" height="31.437" viewBox="0 0 23.828 31.437">
  <defs>
    <clipPath id="clip-path">
      <rect width="23.828" height="31.437" fill="none"/>
    </clipPath>
  </defs>
  <g id="Repeat_Grid_1" data-name="Repeat Grid 1" clip-path="url(#clip-path)">
    <g id="Group_426" data-name="Group 426" transform="translate(-56.676 -91.556)">
      <g id="Group_429" data-name="Group 429" transform="translate(-114.824 -1.944)">
        <path id="Path_87" data-name="Path 87" d="M86.052,15.5h0l-5.584-5.118a5.676,5.676,0,0,0-2.1-1.2,5.073,5.073,0,1,0-5.915,0,5.676,5.676,0,0,0-2.1,1.2L64.776,15.5a2.411,2.411,0,1,0,3.359,3.46l2.273-2.273a14.253,14.253,0,0,0,.387,2.244L68.511,22.1a3.5,3.5,0,0,0-.112,4.034l2.193,3.289a2.286,2.286,0,0,0,4.188-1.265v-.31a2.3,2.3,0,0,0-.5-1.426L72.513,24.21l1-.747a3.19,3.19,0,0,0,3.808,0l1,.747-1.767,2.209a2.293,2.293,0,0,0-.5,1.425v.31a2.286,2.286,0,0,0,4.187,1.266l2.218-3.327a3.431,3.431,0,0,0-.1-3.95l-2.318-3.217a14.229,14.229,0,0,0,.387-2.244l2.273,2.273a2.439,2.439,0,0,0,1.739.7,2.4,2.4,0,0,0,1.62-4.161ZM75.414,22.828c-1.323,0-2.591-1.5-3.278-3.8h6.555C78,21.328,76.736,22.828,75.414,22.828Z" transform="translate(108 94)" fill="none" stroke="#000" stroke-width="1"/>
      </g>
    </g>
  </g>
</svg>
