<svg xmlns="http://www.w3.org/2000/svg" xmlns:xlink="http://www.w3.org/1999/xlink" width="393" height="260" viewBox="0 0 393 260">
  <defs>
    <radialGradient id="radial-gradient" cx="0.5" cy="0.5" r="0.5" gradientUnits="objectBoundingBox">
      <stop offset="0" stop-color="#fff"/>
      <stop offset="1" stop-color="#f2f6f8"/>
    </radialGradient>
    <filter id="Rectangle_204" x="0" y="0" width="393" height="260" filterUnits="userSpaceOnUse">
      <feOffset dy="6" input="SourceAlpha"/>
      <feGaussianBlur stdDeviation="5.5" result="blur"/>
      <feFlood flood-opacity="0.161"/>
      <feComposite operator="in" in2="blur"/>
      <feComposite in="SourceGraphic"/>
    </filter>
  </defs>
  <g transform="matrix(1, 0, 0, 1, 0, 0)" filter="url(#Rectangle_204)">
    <g id="Rectangle_204-2" data-name="Rectangle 204" transform="translate(16.5 10.5)" stroke="#e8e8e8" stroke-width="1" fill="url(#radial-gradient)">
      <path d="M0,0H360a0,0,0,0,1,0,0V164a63,63,0,0,1-63,63H63A63,63,0,0,1,0,164V0A0,0,0,0,1,0,0Z" stroke="none"/>
      <path d="M1,.5H359a.5.5,0,0,1,.5.5V164A62.5,62.5,0,0,1,297,226.5H63A62.5,62.5,0,0,1,.5,164V1A.5.5,0,0,1,1,.5Z" fill="none"/>
    </g>
  </g>
</svg>
