<svg id="info_2_" data-name="info (2)" xmlns="http://www.w3.org/2000/svg" width="12.389" height="12.389" viewBox="0 0 12.389 12.389">
  <g id="Group_334" data-name="Group 334">
    <g id="Group_333" data-name="Group 333">
      <path id="Path_8011" data-name="Path 8011" d="M6.194,0a6.194,6.194,0,1,0,6.194,6.194A6.194,6.194,0,0,0,6.194,0Zm0,11.614a5.42,5.42,0,1,1,5.42-5.42A5.42,5.42,0,0,1,6.194,11.614Z" fill="#b4b4b4"/>
      <path id="Path_8012" data-name="Path 8012" d="M209.936,176.774a.774.774,0,0,0-.774-.774H208v.774h1.161v4.259h-.774v.774h2.323v-.774h-.774Z" transform="translate(-202.967 -171.741)" fill="#b4b4b4"/>
      <ellipse id="Ellipse_38" data-name="Ellipse 38" cx="1" cy="0.5" rx="1" ry="0.5" transform="translate(5 2.389)" fill="#b4b4b4"/>
    </g>
  </g>
</svg>
