<svg id="_019---Pin-Number" data-name="019---Pin-Number" xmlns="http://www.w3.org/2000/svg" width="20.611" height="15.764" viewBox="0 0 20.611 15.764">
  <path id="Shape" d="M21.837,15.764a3.041,3.041,0,0,0,2.775-3.245V3.245A3.041,3.041,0,0,0,21.837,0H6.775A3.041,3.041,0,0,0,4,3.245v9.273a3.041,3.041,0,0,0,2.775,3.245ZM4.793,12.518V3.245A2.173,2.173,0,0,1,6.775.927H21.837a2.173,2.173,0,0,1,1.982,2.318v9.273a2.173,2.173,0,0,1-1.982,2.318H6.775A2.173,2.173,0,0,1,4.793,12.518Z" transform="translate(-4)" fill="#626267"/>
  <path id="Shape-2" data-name="Shape" d="M12.628,9.031a1.209,1.209,0,0,0,1.209-1.209V6.209A1.209,1.209,0,0,0,12.628,5H10.209A1.209,1.209,0,0,0,9,6.209V7.822a1.209,1.209,0,0,0,1.209,1.209Zm0-.806H11.419V7.419h1.612v.4A.4.4,0,0,1,12.628,8.225Zm.4-2.015v.4H11.419V5.806h1.209A.4.4,0,0,1,13.031,6.209Zm-2.822-.4h.4v.806H9.806v-.4A.4.4,0,0,1,10.209,5.806Zm-.4,2.015v-.4h.806v.806h-.4A.4.4,0,0,1,9.806,7.822Z" transform="translate(-6.985 -2.985)" fill="#626267"/>
  <path id="Shape-3" data-name="Shape" d="M11.4,20.806h2.419a.4.4,0,1,0,0-.806H11.4a.4.4,0,1,0,0,.806Z" transform="translate(-8.178 -10.652)" fill="#626267"/>
  <path id="Shape-4" data-name="Shape" d="M21.4,20.806h2.419a.4.4,0,0,0,0-.806H21.4a.4.4,0,0,0,0,.806Z" transform="translate(-14.282 -10.652)" fill="#626267"/>
  <path id="Shape-5" data-name="Shape" d="M31.4,20.806h2.419a.4.4,0,0,0,0-.806H31.4a.4.4,0,0,0,0,.806Z" transform="translate(-20.331 -10.652)" fill="#626267"/>
  <path id="Shape-6" data-name="Shape" d="M43.822,20H41.4a.4.4,0,1,0,0,.806h2.419a.4.4,0,0,0,0-.806Z" transform="translate(-26.435 -10.652)" fill="#626267"/>
  <path id="Shape-7" data-name="Shape" d="M12.209,26H11.4a.4.4,0,1,0,0,.806h.806a.4.4,0,1,0,0-.806Z" transform="translate(-8.178 -13.847)" fill="#626267"/>
  <path id="Shape-8" data-name="Shape" d="M19.209,26H18.4a.4.4,0,1,0,0,.806h.806a.4.4,0,1,0,0-.806Z" transform="translate(-12.459 -13.847)" fill="#626267"/>
  <path id="Shape-9" data-name="Shape" d="M38.613,9.225a1.6,1.6,0,0,0,1.209-.557,1.612,1.612,0,1,0,0-2.111,1.609,1.609,0,1,0-1.209,2.668Zm2.419-2.419a.806.806,0,1,1-.806.806A.806.806,0,0,1,41.031,6.806Zm-2.419,0a.806.806,0,1,1-.806.806A.806.806,0,0,1,38.613,6.806Z" transform="translate(-24.048 -3.106)" fill="#626267"/>
</svg>
