<svg xmlns="http://www.w3.org/2000/svg" width="145.498" height="124.933" viewBox="0 0 145.498 124.933">
  <g id="cerv-logo" transform="translate(-7.02 -10.689)">
    <g id="Group_528" data-name="Group 528">
      <path id="Path_9845" data-name="Path 9845" d="M70.84,107.48H68.02v-1.32c0-4.87-.03-9.75.02-14.62a2.074,2.074,0,0,0-.89-1.97,13.652,13.652,0,0,1-6.1-9.58,11.291,11.291,0,0,1,1.05-6.78c2.28-4.78,5.65-7.39,9.95-8.15a13.606,13.606,0,0,0,1.63-.53c-.85-.54-1.49-.96-2.13-1.37a6.605,6.605,0,0,1-2.89-5.21,6.429,6.429,0,0,1,1.64-4.71c2.64-3.12,7.26-3.1,10.24-1a6.7,6.7,0,0,1,2.88,4.83,5.728,5.728,0,0,1-1.26,4.49,39.3,39.3,0,0,1-3.56,3.13c.5.17,1.2.46,1.91.63,4.6,1.1,8.05,4.18,9.89,9.76a11.616,11.616,0,0,1-.59,8.51,13.572,13.572,0,0,1-4.98,6.1,2.467,2.467,0,0,0-1.04,2.38c.06,4.67.02,9.33.02,14v1.39H80.77c-.03-.35-.05-.66-.06-.98-.01-4.67.01-9.33-.02-14-.01-.95.28-1.43.95-1.71a13.932,13.932,0,0,0,5.28-3.66,12.063,12.063,0,0,0,2.81-4.95,2.383,2.383,0,0,0-3.45.96,11.45,11.45,0,0,1-7.48,5.73,11.7,11.7,0,0,1-9.48-1.77,12.26,12.26,0,0,1-3.67-4.13c-.49-.84-.95-1.21-1.74-1.1a11.275,11.275,0,0,1-1.55.01,3.665,3.665,0,0,0,.11,1.29,26.189,26.189,0,0,0,2.27,3.52,15.651,15.651,0,0,0,5.51,4.16,1.2,1.2,0,0,1,.55.83C70.84,96.89,70.84,102.13,70.84,107.48ZM81,83.27a3.938,3.938,0,0,0-1.16-2.92c-2.15-2.01-4.44-2.33-6.85-.87a4.4,4.4,0,0,0-1.27,6.25,5.151,5.151,0,0,0,7.82.8A4.192,4.192,0,0,0,81,83.27Zm2.9,1.82a8.961,8.961,0,0,0,2.71-6.55,8.512,8.512,0,0,0-2.71-6.37ZM67.98,72.3c-1.64.79-3.09,4.5-2.75,6.87.32,2.29,1.45,5.25,2.75,5.22Z" fill-rule="evenodd"/>
    </g>
    <g id="Group_531" data-name="Group 531">
      <g id="Group_530" data-name="Group 530">
        <g id="Group_529" data-name="Group 529">
          <path id="Path_9846" data-name="Path 9846" d="M74.78,12.1S26.78.26,9.85,48.6c-.47,1.35-7.19,18.63,2.52,51.36,1.29,4.35,5.57,2.45,17.6,5.46,14.6,3.65,12.58,13.24,23.31,20.89,6.78,4.83,31.47-1.78,31.47-1.78s26.5-20.64,35.3-27.9c.22-.19.95-.47.9-.75-.29-1.6-8.14-3.37-8.14-3.37s-8.09-1.37-9.14-.9c0,0-19.74,14.63-21.36,14.62A71.336,71.336,0,0,1,58.64,87.19C51.72,78.5,32.03,66.32,20.7,67.26c-6.39.53-4.52-7.6-4.16-8.75C23.85,35.29,36,11.36,74.78,12.1Z" fill="#71ae43" stroke="#fff" stroke-miterlimit="10" stroke-width="0.25"/>
        </g>
        <path id="Path_9847" data-name="Path 9847" d="M64.41,110.36l24.96,13.16s8.37,1.05,7-6.49c-.86-4.8-15.41-11.32-15.41-11.32" fill="#71ae43" stroke="#fff" stroke-miterlimit="10" stroke-width="0.25"/>
      </g>
    </g>
    <g id="Group_534" data-name="Group 534">
      <g id="Group_533" data-name="Group 533">
        <g id="Group_532" data-name="Group 532">
          <path id="Path_9848" data-name="Path 9848" d="M89.39,135.06s48.83,7.73,61.61-41.87c.35-1.39,5.59-19.18-6.86-50.96-1.65-4.23-5.76-1.97-18-3.95-14.86-2.41-13.65-12.13-25-18.85-7.17-4.24-31.21,4.44-31.21,4.44S45.27,46.69,37.12,54.66c-.2.21-.91.55-.83.83.42,1.57,8.39,2.67,8.39,2.67s8.18.69,9.19.13c0,0,18.43-16.24,20.05-16.37a71.374,71.374,0,0,1,25.2,16.97c7.64,8.07,28.29,18.55,39.5,16.65,6.32-1.07,5.15,7.19,4.88,8.36C138.17,107.65,128.09,132.52,89.39,135.06Z" fill="#2197d4" stroke="#fff" stroke-miterlimit="10" stroke-width="0.25"/>
        </g>
        <path id="Path_9849" data-name="Path 9849" d="M91.41,36.28l-25.98-11S57,24.94,59,32.34c1.26,4.71,16.32,9.97,16.32,9.97" fill="#2197d4" stroke="#fff" stroke-miterlimit="10" stroke-width="0.25"/>
      </g>
    </g>
  </g>
</svg>
