<svg xmlns="http://www.w3.org/2000/svg" width="7" height="8.081" viewBox="0 0 7 8.081">
  <path id="Path_7898" data-name="Path 7898" d="M1.938,5.631,2.7,4.545c.612-.875,1.221-1.752,1.837-2.623.289-.408.574-.821.895-1.2A1.882,1.882,0,0,1,6.275.028a.536.536,0,0,1,.609.185.513.513,0,0,1-.01.613c-.182.248-.383.483-.566.731-.276.375-.55.752-.813,1.136-.336.492-.67.985-.985,1.49-.4.646-.79,1.3-1.176,1.96-.262.445-.493.909-.772,1.343a1.919,1.919,0,0,1-.51.5.661.661,0,0,1-.891-.222A7.256,7.256,0,0,1,.378,6.2C.247,5.865.124,5.529,0,5.193a.261.261,0,0,1,.057-.3,2.1,2.1,0,0,1,.817-.513c.478-.15.563-.1.772.363a5.71,5.71,0,0,1,.218.706C1.883,5.5,1.909,5.557,1.938,5.631Z" transform="translate(0.02 0.001)" fill="#07f847"/>
</svg>
