<svg xmlns="http://www.w3.org/2000/svg" width="25.001" height="25.247" viewBox="0 0 25.001 25.247">
  <g id="social-media" transform="translate(-5.901 -4.749)">
    <path id="Path_9758" data-name="Path 9758" d="M74.873,52.4H63.523l2.029-2.029a.373.373,0,0,0-.527-.527L62.36,52.513a.375.375,0,0,0-.047.058c-.005.008-.009.017-.014.025a.223.223,0,0,0-.032.075.3.3,0,0,0-.01.033.374.374,0,0,0,0,.146c0,.012.007.021.01.033a.36.36,0,0,0,.011.036.369.369,0,0,0,.021.039c0,.008.008.017.014.025a.374.374,0,0,0,.047.058l2.664,2.665a.373.373,0,0,0,.527-.527L63.523,53.15h11.35a.373.373,0,1,0,0-.746Z" transform="translate(-44.344 -35.405)" fill="#d84040"/>
    <path id="Path_9759" data-name="Path 9759" d="M25.1,19.13a.373.373,0,0,0-.373.373v7.862h-9.6V7.38h9.6v7.862a.373.373,0,0,0,.746,0V7.008a.373.373,0,0,0-.373-.373H15.128V5.122a.373.373,0,0,0-.524-.341L6.122,8.551a.373.373,0,0,0-.221.341V25.854a.373.373,0,0,0,.221.341L14.6,29.964a.373.373,0,0,0,.524-.341V28.11H25.1a.373.373,0,0,0,.373-.373V19.5a.373.373,0,0,0-.373-.373ZM14.382,29.049,6.646,25.611V9.134L14.382,5.7Z" transform="translate(0)" fill="#d84040"/>
    <path id="Path_9760" data-name="Path 9760" d="M11.7,71.77a.373.373,0,0,0,.373-.373V65.29a.373.373,0,1,0-.746,0V71.4A.373.373,0,0,0,11.7,71.77Z" transform="translate(-4.269 -47.349)" fill="#d84040"/>
  </g>
</svg>
