<svg xmlns="http://www.w3.org/2000/svg" width="12.998" height="12.997" viewBox="0 0 12.998 12.997">
  <g id="close_1_" data-name="close (1)" transform="translate(-6.969 -3.988)">
    <g id="Group_326" data-name="Group 326" transform="translate(0 0.016)">
      <path id="Path_193" data-name="Path 193" d="M7.93,6.514l4.86-4.86a.712.712,0,0,0,0-1.005L12.364.224a.713.713,0,0,0-1.005,0L6.5,5.083,1.639.224a.712.712,0,0,0-1.005,0L.208.649a.711.711,0,0,0,0,1.005l4.86,4.86-4.86,4.86a.713.713,0,0,0,0,1.005l.426.426a.712.712,0,0,0,1.005,0L6.5,7.946l4.86,4.86a.705.705,0,0,0,.5.208h0a.705.705,0,0,0,.5-.208l.426-.426a.713.713,0,0,0,0-1.005Z" transform="translate(6.969 3.955)" fill="#3e3d3d"/>
    </g>
  </g>
</svg>
