<svg xmlns="http://www.w3.org/2000/svg" width="20.611" height="15.705" viewBox="0 0 20.611 15.705">
  <g id="cnic" transform="translate(0 -92)">
    <g id="Group_556" data-name="Group 556" transform="translate(0 92)">
      <path id="Path_9880" data-name="Path 9880" d="M19.663,92H16.778a.366.366,0,0,0,0,.72h2.885a.38.38,0,0,1,.343.408v13.448a.38.38,0,0,1-.343.408H.948a.38.38,0,0,1-.343-.408V93.129a.38.38,0,0,1,.343-.408H15.3a.366.366,0,0,0,0-.72H.948A1.051,1.051,0,0,0,0,93.129v13.448a1.051,1.051,0,0,0,.948,1.129H19.663a1.051,1.051,0,0,0,.948-1.129V93.129A1.051,1.051,0,0,0,19.663,92Z" transform="translate(0 -92)" fill="#626267"/>
      <path id="Path_9881" data-name="Path 9881" d="M54.413,148.3a.3.3,0,0,0-.3-.3H48.3a.3.3,0,0,0-.3.3v6.454a.3.3,0,0,0,.3.3h5.808a.3.3,0,0,0,.3-.3ZM49.9,154.454v-.988a.343.343,0,0,1,.343-.343h1.936a.343.343,0,0,1,.343.343v.988Zm3.913,0h-.686v-.988a.949.949,0,0,0-.948-.948H50.239a.949.949,0,0,0-.948.948v.988h-.686v-5.849h5.2Z" transform="translate(-46.064 -144.814)" fill="#626267"/>
      <path id="Path_9882" data-name="Path 9882" d="M89.593,183.186A1.593,1.593,0,1,0,88,181.593,1.6,1.6,0,0,0,89.593,183.186Zm0-2.581a.988.988,0,1,1-.988.988A.989.989,0,0,1,89.593,180.605Z" transform="translate(-84.451 -175.558)" fill="#626267"/>
      <path id="Path_9883" data-name="Path 9883" d="M240.3,148a.3.3,0,1,0,0,.605h5.486a.3.3,0,1,0,0-.605Z" transform="translate(-230.32 -145.29)" fill="#626267"/>
      <path id="Path_9884" data-name="Path 9884" d="M240.3,188.605h2.581a.3.3,0,0,0,0-.605H240.3a.3.3,0,1,0,0,.605Z" transform="translate(-230.32 -183.354)" fill="#626267"/>
      <path id="Path_9885" data-name="Path 9885" d="M341.123,188.3a.3.3,0,0,0-.3-.3H336.3a.3.3,0,0,0,0,.605h4.518A.3.3,0,0,0,341.123,188.3Z" transform="translate(-322.447 -183.354)" fill="#626267"/>
      <path id="Path_9886" data-name="Path 9886" d="M247.4,228h-7.1a.3.3,0,1,0,0,.605h7.1a.3.3,0,0,0,0-.605Z" transform="translate(-230.32 -221.418)" fill="#626267"/>
      <path id="Path_9887" data-name="Path 9887" d="M244.477,268.3a.3.3,0,0,0-.3-.3H240.3a.3.3,0,1,0,0,.605h3.872A.3.3,0,0,0,244.477,268.3Z" transform="translate(-230.32 -259.482)" fill="#626267"/>
      <path id="Path_9888" data-name="Path 9888" d="M370.239,268H368.3a.3.3,0,1,0,0,.605h1.936a.3.3,0,0,0,0-.605Z" transform="translate(-353.157 -259.482)" fill="#626267"/>
      <path id="Path_9889" data-name="Path 9889" d="M240.3,308a.3.3,0,1,0,0,.605h2.259a.3.3,0,1,0,0-.605Z" transform="translate(-230.32 -297.546)" fill="#626267"/>
      <path id="Path_9890" data-name="Path 9890" d="M328.3,308.605h3.549a.3.3,0,1,0,0-.605H328.3a.3.3,0,1,0,0,.605Z" transform="translate(-314.77 -297.546)" fill="#626267"/>
      <path id="Path_9891" data-name="Path 9891" d="M48.3,348a.3.3,0,1,0,0,.605h1.613a.3.3,0,1,0,0-.605Z" transform="translate(-46.064 -335.61)" fill="#626267"/>
      <path id="Path_9892" data-name="Path 9892" d="M123.207,348h-2.9a.3.3,0,1,0,0,.605h2.9a.3.3,0,1,0,0-.605Z" transform="translate(-115.16 -335.61)" fill="#626267"/>
    </g>
  </g>
</svg>
