<svg xmlns="http://www.w3.org/2000/svg" width="16.382" height="18.25" viewBox="0 0 16.382 18.25">
  <g id="phone-number" transform="translate(-26.202)">
    <g id="Group_562" data-name="Group 562" transform="translate(26.202 0)">
      <g id="Group_557" data-name="Group 557" transform="translate(0.001 8.776)">
        <path id="Path_9893" data-name="Path 9893" d="M26.58,246.921a.356.356,0,1,1,.35-.287A.36.36,0,0,1,26.58,246.921Z" transform="translate(-26.224 -246.208)" fill="#626267"/>
      </g>
      <g id="Group_559" data-name="Group 559" transform="translate(5.197 13.086)">
        <g id="Group_558" data-name="Group 558">
          <path id="Path_9894" data-name="Path 9894" d="M177.986,367.841h-5.624a.356.356,0,1,1,0-.713h5.624a.356.356,0,1,1,0,.713Z" transform="translate(-172.005 -367.128)" fill="#626267"/>
        </g>
      </g>
      <g id="Group_561" data-name="Group 561" transform="translate(6.16 14.779)">
        <g id="Group_560" data-name="Group 560">
          <path id="Path_9895" data-name="Path 9895" d="M203.073,415.33h-3.7a.356.356,0,1,1,0-.713h3.7a.356.356,0,0,1,0,.713Z" transform="translate(-199.018 -414.617)" fill="#626267"/>
        </g>
      </g>
      <path id="Path_9896" data-name="Path 9896" d="M180.625,71.925h-.435a2.678,2.678,0,1,0-3.635,0h-.228a.9.9,0,0,0-.9.9v3.115a.356.356,0,0,0,.356.356h5.38a.356.356,0,0,0,.356-.356V72.823A.9.9,0,0,0,180.625,71.925Zm-4.217-1.965a1.965,1.965,0,1,1,1.965,1.965A1.967,1.967,0,0,1,176.408,69.96Zm4.4,5.621h-4.667V72.823a.185.185,0,0,1,.185-.185h4.3a.185.185,0,0,1,.185.185v2.759Z" transform="translate(-170.111 -64.884)" fill="#626267"/>
      <path id="Path_9897" data-name="Path 9897" d="M42.584,2.783a.962.962,0,0,0-.961-.961h-.847V.356A.356.356,0,0,0,40.419,0H27.7A1.5,1.5,0,0,0,26.2,1.494V7.514a.356.356,0,0,0,.713,0V1.494A.782.782,0,0,1,27.7.713h.627V17.537H27.7a.782.782,0,0,1-.781-.781V10.736a.356.356,0,0,0-.713,0v6.019A1.5,1.5,0,0,0,27.7,18.25H40.419a.356.356,0,0,0,.356-.356V13.748h.847a.962.962,0,0,0,.961-.961V11.194a.957.957,0,0,0-.215-.605.957.957,0,0,0,.215-.605V8.39a.957.957,0,0,0-.215-.605.957.957,0,0,0,.215-.605V5.586a.957.957,0,0,0-.215-.605.957.957,0,0,0,.215-.605Zm-.961-.248a.249.249,0,0,1,.248.248V4.376a.249.249,0,0,1-.248.248h-.847V2.535Zm.248,7.449a.249.249,0,0,1-.248.248h-.847V8.142h.847a.249.249,0,0,1,.248.248Zm0-2.8a.249.249,0,0,1-.248.248h-.847V5.338h.847a.249.249,0,0,1,.248.248ZM40.063,17.537H29.036V.713H40.063Zm1.808-4.75a.249.249,0,0,1-.248.248h-.847v-2.09h.847a.249.249,0,0,1,.248.248Z" transform="translate(-26.202 0)" fill="#626267"/>
    </g>
  </g>
</svg>
