<svg xmlns="http://www.w3.org/2000/svg" width="7" height="7" viewBox="0 0 7 7">
  <g id="close_1_" data-name="close (1)" transform="translate(6 -2.016)">
    <g id="Group_337" data-name="Group 337" transform="translate(0 0.016)">
      <path id="Path_8013" data-name="Path 8013" d="M4.271,3.516,6.888.9a.384.384,0,0,0,0-.541L6.659.128a.384.384,0,0,0-.542,0L3.5,2.745.883.128a.384.384,0,0,0-.541,0L.112.357A.383.383,0,0,0,.112.9L2.729,3.516.112,6.133a.384.384,0,0,0,0,.542L.341,6.9a.384.384,0,0,0,.541,0L3.5,4.287,6.117,6.9a.38.38,0,0,0,.271.112h0A.38.38,0,0,0,6.659,6.9l.229-.229a.384.384,0,0,0,0-.541Z" transform="translate(-6 1.984)" fill="#dc6767"/>
    </g>
  </g>
</svg>
