<svg xmlns="http://www.w3.org/2000/svg" width="18.248" height="19.479" viewBox="0 0 18.248 19.479">
  <g id="gender" transform="translate(-16.179)">
    <g id="Group_327" data-name="Group 327" transform="translate(16.179)">
      <path id="Path_194" data-name="Path 194" d="M30.931,0V1.193h1.345L29.652,3.681a5.109,5.109,0,0,0-8.133,1.1c-.075,0-.15-.005-.225-.005a5.114,5.114,0,0,0-.6,10.193v1.585H18.911V17.75H20.7v1.729h1.193V17.75h1.863V16.557H21.889V14.972a5.124,5.124,0,0,0,3.881-2.611c.075,0,.15.005.225.005A5.112,5.112,0,0,0,30.384,4.63l2.85-2.7V3.409h1.193V0ZM21.293,13.815a3.921,3.921,0,0,1-.251-7.835,5.117,5.117,0,0,0,3.46,6.164A3.919,3.919,0,0,1,21.293,13.815Zm3.745-2.759A3.923,3.923,0,0,1,22.25,6.09a3.923,3.923,0,0,1,2.788,4.966Zm1.208.11A5.117,5.117,0,0,0,22.787,5a3.921,3.921,0,1,1,3.46,6.164Z" transform="translate(-16.179)" fill="#626267"/>
    </g>
  </g>
</svg>
