<svg xmlns="http://www.w3.org/2000/svg" width="27.091" height="28.937" viewBox="0 0 27.091 28.937">
  <g id="today" transform="translate(-44 -94.518)">
    <g id="tools" transform="translate(35.369 95.018)">
      <g id="Group_535" data-name="Group 535" transform="translate(9.131)">
        <path id="Path_9850" data-name="Path 9850" d="M35.222,26.512V22.29a4.237,4.237,0,0,0-4.316-4.018h0v.965h0v1.524a2.566,2.566,0,1,1-5.133,0v-2.5H18.5v2.5a2.566,2.566,0,1,1-5.133,0v-1.52h0v-.965h0a4.227,4.227,0,0,0-4.233,4.015V39.914a4.447,4.447,0,0,0,4.441,4.441H30.78a4.447,4.447,0,0,0,4.441-4.441v-13.4Zm-1.933,13.4a2.511,2.511,0,0,1-2.509,2.508H13.573a2.511,2.511,0,0,1-2.508-2.508v-13.4H33.289Z" transform="translate(-9.131 -16.418)" fill="none" stroke="#1885be" stroke-width="1"/>
        <path id="Path_9851" data-name="Path 9851" d="M65.339,1.117V4.343a1.117,1.117,0,1,0,2.234,0V1.117a1.117,1.117,0,1,0-2.234,0Z" transform="translate(-59.657)" fill="none" stroke="#1885be" stroke-width="1"/>
        <path id="Path_9852" data-name="Path 9852" d="M189.2.005a1.117,1.117,0,0,0-1.117,1.117V4.348a1.117,1.117,0,0,0,2.235,0V1.122A1.118,1.118,0,0,0,189.2.005Z" transform="translate(-169.994 -0.004)" fill="none" stroke="#1885be" stroke-width="1"/>
        <path id="Path_9853" data-name="Path 9853" d="M73,131.385a3.675,3.675,0,0,0,2.855-1.056,3.523,3.523,0,0,0,.964-2.449A2.707,2.707,0,0,0,76,125.791a3.531,3.531,0,0,0-.405-.327c-.221-.149-.238-.256-.03-.417a2.473,2.473,0,0,0,.344-.33,2.414,2.414,0,0,0,.575-1.635,2.711,2.711,0,0,0-.964-2.183,3.8,3.8,0,0,0-2.537-.814,4.352,4.352,0,0,0-1.429.2,2.9,2.9,0,0,0-1.005.59,3.5,3.5,0,0,0-.832,1.189,5.289,5.289,0,0,0-.242,1.07.434.434,0,0,0,.445.481h1.047a.537.537,0,0,0,.511-.482,1.775,1.775,0,0,1,.315-.812,1.3,1.3,0,0,1,1.121-.485,1.338,1.338,0,0,1,1.03.394,1.443,1.443,0,0,1,.366,1.022,1.263,1.263,0,0,1-.717,1.287,3.015,3.015,0,0,1-.98.186.511.511,0,0,0-.483.5v.578a.5.5,0,0,0,.484.5,3.472,3.472,0,0,1,1.086.192,1.412,1.412,0,0,1,.875,1.446,1.621,1.621,0,0,1-.472,1.253,1.579,1.579,0,0,1-1.106.435,1.448,1.448,0,0,1-1.427-.795,2.06,2.06,0,0,1-.179-.608.542.542,0,0,0-.516-.482H69.722a.437.437,0,0,0-.448.481,4.1,4.1,0,0,0,.493,1.637A3.451,3.451,0,0,0,73,131.385Z" transform="translate(-63.192 -107.944)" fill="none" stroke="#1885be" stroke-width="1"/>
        <path id="Path_9854" data-name="Path 9854" d="M161.285,124.016H162.9a.483.483,0,0,1,.483.483v6.6a.484.484,0,0,0,.483.483h1.244a.483.483,0,0,0,.483-.483V121.093a.483.483,0,0,0-.483-.483h-.836c-.267,0-.486.1-.512.221-.014.064-.032.136-.055.217a1.894,1.894,0,0,1-.423.787,2.016,2.016,0,0,1-1.057.575,6.861,6.861,0,0,1-.945.11.518.518,0,0,0-.482.509v.5A.484.484,0,0,0,161.285,124.016Z" transform="translate(-145.469 -108.417)" fill="none" stroke="#1885be" stroke-width="1"/>
      </g>
    </g>
  </g>
</svg>
