<svg xmlns="http://www.w3.org/2000/svg" width="20.494" height="32.493" viewBox="0 0 20.494 32.493">
  <g id="Group_427" data-name="Group 427" transform="translate(-48.576 -88.5)">
    <g id="mother-with-baby-in-arms" transform="translate(49.082 89)">
      <g id="Group_98" data-name="Group 98" transform="translate(0)">
        <path id="Path_85" data-name="Path 85" d="M16.309,9.116a4.483,4.483,0,0,0,4.406-4.556,4.412,4.412,0,1,0-8.819,0A4.487,4.487,0,0,0,16.309,9.116Z" transform="translate(-6.265)" fill="none" stroke="#1885be" stroke-width="1"/>
        <path id="Path_86" data-name="Path 86" d="M23.687,12.628c-.212-.634-1.422-2.557-4.707-2.575l-6.43.017c-3.189-.176-4.461,1.68-4.66,2.5,0,0-2.153,6.772-1.784,8.341.229.974,1.944,2.165,3.771,3.051l-2.433,7.3H24.6l-2.366-7.556c1.63-.85,3.063-1.91,3.27-2.8C25.876,19.325,23.687,12.628,23.687,12.628ZM13.238,20.09A2.422,2.422,0,1,1,14.7,17.8a2.943,2.943,0,0,1,1.167-.492v.007a2.241,2.241,0,0,1,.857,0,42.531,42.531,0,0,1,5.2,1.916,7.28,7.28,0,0,1-5.406,2.327c-.091,0-.18,0-.264-.006h0c-.321-.008-.609-.028-.869-.06C13.731,21.3,13.259,20.7,13.238,20.09Z" transform="translate(-6.063 0.229)" fill="none" stroke="#1885be" stroke-width="1"/>
      </g>
    </g>
  </g>
</svg>
