<svg xmlns="http://www.w3.org/2000/svg" width="20.102" height="21.538" viewBox="0 0 20.102 21.538">
  <g id="hospital_1_" data-name="hospital (1)" transform="translate(-16)">
    <g id="Group_178" data-name="Group 178" transform="translate(31.795 9.333)">
      <g id="Group_177" data-name="Group 177">
        <path id="Path_7912" data-name="Path 7912" d="M368,208v2.154h2.872V208Zm2.154,1.436h-1.436v-.718h1.436Z" transform="translate(-368 -208)" fill="#626267"/>
      </g>
    </g>
    <g id="Group_180" data-name="Group 180" transform="translate(31.795 12.205)">
      <g id="Group_179" data-name="Group 179">
        <path id="Path_7913" data-name="Path 7913" d="M368,272v2.154h2.872V272Zm2.154,1.436h-1.436v-.718h1.436Z" transform="translate(-368 -272)" fill="#626267"/>
      </g>
    </g>
    <g id="Group_182" data-name="Group 182" transform="translate(31.795 15.077)">
      <g id="Group_181" data-name="Group 181">
        <path id="Path_7914" data-name="Path 7914" d="M368,336v2.154h2.872V336Zm2.154,1.436h-1.436v-.718h1.436Z" transform="translate(-368 -336)" fill="#626267"/>
      </g>
    </g>
    <g id="Group_184" data-name="Group 184" transform="translate(31.795 17.949)">
      <g id="Group_183" data-name="Group 183">
        <path id="Path_7915" data-name="Path 7915" d="M368,400v2.154h2.872V400Zm2.154,1.436h-1.436v-.718h1.436Z" transform="translate(-368 -400)" fill="#626267"/>
      </g>
    </g>
    <g id="Group_186" data-name="Group 186" transform="translate(22.461 1.436)">
      <g id="Group_185" data-name="Group 185">
        <path id="Path_7916" data-name="Path 7916" d="M165.026,34.154V32h-2.872v2.154H160v2.872h2.154v2.154h2.872V37.026h2.154V34.154Zm1.436,2.154h-2.154v2.154h-1.436V36.308h-2.154V34.872h2.154V32.718h1.436v2.154h2.154Z" transform="translate(-160 -32)" fill="#626267"/>
      </g>
    </g>
    <g id="Group_188" data-name="Group 188" transform="translate(16)">
      <g id="Group_187" data-name="Group 187">
        <path id="Path_7917" data-name="Path 7917" d="M31.077,7.9V0H21.026V7.9H16V21.538H36.1V7.9ZM21.026,20.82H16.718V8.615h4.308Zm4.667,0H23.9V14.359h1.795Zm2.513,0H26.41V14.359h1.795Zm2.154,0H28.923V13.641H23.179V20.82H21.744V.718h8.615Zm5.026,0H31.077V8.615h4.308Z" transform="translate(-16)" fill="#626267"/>
      </g>
    </g>
    <g id="Group_190" data-name="Group 190" transform="translate(17.436 9.333)">
      <g id="Group_189" data-name="Group 189">
        <path id="Path_7918" data-name="Path 7918" d="M48,208v2.154h2.872V208Zm2.154,1.436H48.718v-.718h1.436Z" transform="translate(-48 -208)" fill="#626267"/>
      </g>
    </g>
    <g id="Group_192" data-name="Group 192" transform="translate(17.436 12.205)">
      <g id="Group_191" data-name="Group 191">
        <path id="Path_7919" data-name="Path 7919" d="M48,272v2.154h2.872V272Zm2.154,1.436H48.718v-.718h1.436Z" transform="translate(-48 -272)" fill="#626267"/>
      </g>
    </g>
    <g id="Group_194" data-name="Group 194" transform="translate(17.436 15.077)">
      <g id="Group_193" data-name="Group 193">
        <path id="Path_7920" data-name="Path 7920" d="M48,336v2.154h2.872V336Zm2.154,1.436H48.718v-.718h1.436Z" transform="translate(-48 -336)" fill="#626267"/>
      </g>
    </g>
    <g id="Group_196" data-name="Group 196" transform="translate(17.436 17.949)">
      <g id="Group_195" data-name="Group 195">
        <path id="Path_7921" data-name="Path 7921" d="M48,400v2.154h2.872V400Zm2.154,1.436H48.718v-.718h1.436Z" transform="translate(-48 -400)" fill="#626267"/>
      </g>
    </g>
  </g>
</svg>
