<svg xmlns="http://www.w3.org/2000/svg" width="20" height="19.903" viewBox="0 0 20 19.903">
  <g id="vaccine_3_" data-name="vaccine (3)" transform="translate(0 -1.178)">
    <g id="Group_208" data-name="Group 208" transform="translate(0 1.178)">
      <g id="Group_207" data-name="Group 207" transform="translate(0 0)">
        <path id="Path_7932" data-name="Path 7932" d="M14.839,7.7l.856-.856V5.853L19.9,1.646l-.468-.468L15.227,5.385h-.993l-.856.856L12.054,4.916,3.778,13.193,2.785,12.2,1.324,13.661,3.31,15.647,1.792,17.165l-.331-.331L0,18.3l2.785,2.785,1.461-1.461-.331-.331L5.433,17.77,7.42,19.756,8.881,18.3,7.888,17.3l8.276-8.276Zm-.331-1.655h.525v.525l-.662.662-.525-.525ZM2.785,20.144.936,18.3l.525-.525L3.31,19.619Zm.662-1.324L2.26,17.633l1.518-1.518L4.965,17.3Zm4.5-.525-.525.525L5.9,17.3,3.778,15.179,2.26,13.661l.525-.525.525.525L7.42,17.77ZM7.42,16.834,4.246,13.661l1.187-1.187,1.421,1.421.468-.468L5.9,12.005l1.187-1.187L9.172,12.9l.468-.468L7.557,10.35,8.744,9.163l1.421,1.421.468-.468L9.212,8.695,10.4,7.508l2.083,2.083.468-.468L10.867,7.04l1.187-1.187.856.856L14.371,8.17l.856.856Z" transform="translate(0 -1.178)" fill="#626267"/>
      </g>
    </g>
    <g id="Group_210" data-name="Group 210" transform="translate(17.329 4.58)">
      <g id="Group_209" data-name="Group 209" transform="translate(0 0)">
        <path id="Path_7933" data-name="Path 7933" d="M421.605,84.483h0l-.961-.961-.961.961a1.278,1.278,0,0,0,.9,2.182h.115a1.278,1.278,0,0,0,.9-2.182Zm-.473,1.335A.611.611,0,0,1,420.7,86h-.114a.611.611,0,0,1-.432-1.042l.489-.489.489.489A.611.611,0,0,1,421.133,85.818Z" transform="translate(-419.309 -83.522)" fill="#626267"/>
      </g>
    </g>
  </g>
</svg>
