<svg xmlns="http://www.w3.org/2000/svg" width="21.667" height="21.666" viewBox="0 0 21.667 21.666">
  <g id="communications" transform="matrix(0.996, 0.087, -0.087, 0.996, 0.835, -1.101)">
    <g id="Group_212" data-name="Group 212" transform="translate(1 1.018)">
      <g id="Group_211" data-name="Group 211" transform="translate(0 0)">
        <path id="Path_7934" data-name="Path 7934" d="M20.475,16.446l-4.048-2.7A1.182,1.182,0,0,0,14.845,14L13.666,15.52a.5.5,0,0,1-.646.136l-.224-.124a13.555,13.555,0,0,1-3.533-2.775A13.611,13.611,0,0,1,6.488,9.225L6.365,9A.5.5,0,0,1,6.5,8.352L8.013,7.173a1.182,1.182,0,0,0,.257-1.582l-2.7-4.048a1.175,1.175,0,0,0-1.584-.357L2.294,2.2A2.388,2.388,0,0,0,1.205,3.616C.6,5.837,1.054,9.67,6.7,15.317c4.492,4.491,7.836,5.7,10.134,5.7a5.9,5.9,0,0,0,1.566-.2,2.386,2.386,0,0,0,1.413-1.089l1.018-1.692A1.176,1.176,0,0,0,20.475,16.446Zm-.218,1.243-1.016,1.693a1.723,1.723,0,0,1-1.017.788c-2.05.563-5.632.1-11.053-5.324s-5.887-9-5.324-11.053a1.725,1.725,0,0,1,.789-1.018L4.33,1.759a.51.51,0,0,1,.688.155l1.466,2.2L7.714,5.961a.513.513,0,0,1-.111.687L6.088,7.827a1.166,1.166,0,0,0-.309,1.5l.12.219a14.139,14.139,0,0,0,2.889,3.686,14.153,14.153,0,0,0,3.686,2.889l.219.121a1.167,1.167,0,0,0,1.5-.309l1.179-1.515a.513.513,0,0,1,.687-.111L20.1,17A.51.51,0,0,1,20.258,17.689Z" transform="translate(-1 -1.018)" fill="#626267"/>
        <path id="Path_7935" data-name="Path 7935" d="M282.961,69.991a5.672,5.672,0,0,1,5.666,5.666.333.333,0,1,0,.667,0,6.339,6.339,0,0,0-6.332-6.332.333.333,0,0,0,0,.667Z" transform="translate(-271.629 -66.656)" fill="#626267"/>
        <path id="Path_7936" data-name="Path 7936" d="M282.961,121.191a3.67,3.67,0,0,1,3.666,3.666.333.333,0,0,0,.667,0,4.338,4.338,0,0,0-4.333-4.333.333.333,0,0,0,0,.667Z" transform="translate(-271.629 -115.856)" fill="#626267"/>
        <path id="Path_7937" data-name="Path 7937" d="M282.961,172.391a1.668,1.668,0,0,1,1.666,1.666.333.333,0,0,0,.667,0,2.336,2.336,0,0,0-2.333-2.333.333.333,0,0,0,0,.667Z" transform="translate(-271.629 -165.057)" fill="#626267"/>
      </g>
    </g>
  </g>
</svg>
