<svg xmlns="http://www.w3.org/2000/svg" width="26.1" height="25.6" viewBox="0 0 26.1 25.6">
  <g id="ilr-stock-filled" transform="translate(-0.7 -0.6)">
    <path id="Path_9886" data-name="Path 9886" d="M26.4,24H1.1a.265.265,0,0,0-.3.3v1.5c0,.4,0,.4.4.4H26.5a.265.265,0,0,0,.3-.3V24.3C26.8,24,26.8,24,26.4,24Z" fill="#1278ae"/>
    <path id="Path_9887" data-name="Path 9887" d="M12.3,13.9c0-.8,0-.8-.8-.8a.265.265,0,0,0-.3.3v1.7c0,.6.1.7.7.7H12a.265.265,0,0,0,.3-.3V13.9Z" fill="#1278ae"/>
    <path id="Path_9888" data-name="Path 9888" d="M18.6,15.7a2.426,2.426,0,0,0-2.6.1A2.653,2.653,0,0,0,18.6,15.7Z" fill="#1278ae"/>
    <path id="Path_9889" data-name="Path 9889" d="M26,9.3a24.258,24.258,0,0,1-1.4-2,.975.975,0,0,0-.9-.4H3.6c-.2,0-.3.1-.5.2-.4.6-.8,1.1-1.2,1.7a7.018,7.018,0,0,0-.6.9H26.2C26.1,9.5,26.1,9.4,26,9.3Z" fill="#1278ae"/>
    <path id="Path_9890" data-name="Path 9890" d="M3.7,5.8H23.9c.2,0,.4-.1.4-.3.7-1.5,1.3-2.9,2-4.4a.367.367,0,0,1,.1-.3c-.2,0-.4-.1-.6-.1C24,.7,22.2.7,20.4.6H1.2c.1.2.1.3.2.4C2,2.4,2.7,3.8,3.3,5.2,3.3,5.7,3.4,5.8,3.7,5.8Z" fill="#1278ae"/>
    <path id="Path_9891" data-name="Path 9891" d="M18.6,17.8c0-.2,0-.3-.2-.3H16.3c-.1,0-.2,0-.2.1-.1.2,0,.6.3.6a1.483,1.483,0,0,0,.7.1.265.265,0,0,1,.3.3v1.3c0,.2-.1.3-.3.2-.2,0-.4-.1-.7-.1-.1,0-.2,0-.2.1a.519.519,0,0,0,.5.8h1.6c.4,0,.5-.2.5-.6V19h0A2.165,2.165,0,0,1,18.6,17.8Z" fill="#1278ae"/>
    <path id="Path_9892" data-name="Path 9892" d="M18.6,16.3a5.708,5.708,0,0,1-2.6,0c-.1,0-.2,0-.2.1a.449.449,0,0,0,.4.7,4.1,4.1,0,0,0,1.1.1c.3,0,.7-.1,1-.1.4-.1.6-.3.5-.7C18.8,16.3,18.7,16.2,18.6,16.3Z" fill="#1278ae"/>
    <path id="Path_9893" data-name="Path 9893" d="M26.4,10.7H1.1c-.4,0-.4,0-.4.4V22.5c0,.4,0,.4.4.4H26.3c.4,0,.4,0,.4-.4V11.1C26.8,10.8,26.8,10.7,26.4,10.7ZM13.6,13.1h-.7a.265.265,0,0,0-.3.3v4.7a.265.265,0,0,1-.3.3c-.2,0-.2.1-.2.2a17.96,17.96,0,0,1-.2,2.2c0,.2-.1.4-.1.6h-.1c0-.2-.1-.4-.1-.6-.1-.7-.1-1.4-.2-2.2a.265.265,0,0,0-.3-.3.265.265,0,0,1-.3-.3V13.4c0-.3-.1-.3-.3-.3H9.7c-.1,0-.3-.1-.4-.1v-.1c.1,0,.3-.1.4-.1h1.2c.2,0,.2-.1.2-.2v-.2c0-.5,0-.5-.5-.6-.1,0-.1-.1-.2-.1.1-.1.1-.1.2-.1h2c.1,0,.1.1.2.1v.1c-.1,0-.3.1-.4.1a.265.265,0,0,0-.3.3c0,.7,0,.7.7.7h.7c.1,0,.3.1.4.1v.1Zm5.4,4a1.483,1.483,0,0,0-.1.7v2.9a.752.752,0,0,1-.5.7c-.4.1-.7.1-1.1.2-.4-.1-.7-.1-1.1-.2s-.5-.3-.5-.7V19a21.115,21.115,0,0,0-.2-2.6v-.5a.53.53,0,0,1,.6-.6,5.283,5.283,0,0,1,2.5,0,.661.661,0,0,1,.6.7A2.344,2.344,0,0,1,19,17.1Z" fill="#1278ae"/>
  </g>
</svg>
