<svg xmlns="http://www.w3.org/2000/svg" width="27.523" height="27.017" viewBox="0 0 27.523 27.017">
  <g id="ilr-stock" transform="translate(-22.94 -27.1)">
    <g id="Group_579" data-name="Group 579" transform="translate(22.94 27.1)">
      <path id="Path_9883" data-name="Path 9883" d="M50.277,28.223c.067-.147.124-.3.185-.448V27.55c-.01-.021-.021-.041-.029-.062a.525.525,0,0,0-.517-.359l-8-.005-8.842-.008c-.055,0-.11-.01-.166-.015H28.135c-.336.006-.672.015-1.008.018-1.2.014-2.4.025-3.607.041a.467.467,0,0,0-.531.426.629.629,0,0,0,.058.322q1.044,2.335,2.1,4.666c.111.247.208.5.331.742a.344.344,0,0,1-.042.4c-.6.833-1.184,1.672-1.773,2.509-.194.275-.392.548-.578.828a.508.508,0,0,0-.084.256c-.018.856-.027,1.712-.041,2.568,0,.074-.01.148-.016.222V52.039c.007.1.016.195.021.292.021.425.033.851.063,1.275.026.367.122.451.5.455q2.246.021,4.493.037c.51,0,1.02,0,1.53,0a1.164,1.164,0,0,1,.138.015h3.988a1.436,1.436,0,0,1,.152-.015q8.01-.009,16.019-.012a.561.561,0,0,0,.519-.22.552.552,0,0,1,.1-.09V38.558c-.009-.233-.022-.466-.026-.7a1.563,1.563,0,0,0-.425-1.312c-.669-.942-1.335-1.886-2.011-2.822a.37.37,0,0,1-.04-.427Q49.125,30.763,50.277,28.223Zm-.85,24.792H24.021V50.9H49.427Zm0-3.246H24.038V37.924H49.431Zm-.655-13.114c.032.044.059.09.108.166H39.126c0,.005,0,.01,0,.016H37.236V36.82H36.158v.014H34.274V36.82H32.928v.014H31.057V36.82h-1.1v.015H27.823V36.82H26.734v.025c-.715-.012-1.422.026-2.155-.044.061-.1.1-.165.145-.229.555-.788,1.112-1.574,1.664-2.364a.206.206,0,0,1,.2-.086H39.142q3.826,0,7.652,0a.3.3,0,0,1,.286.143C47.642,35.062,48.21,35.857,48.776,36.655ZM47,32.876a.2.2,0,0,1-.218.141q-6.361,0-12.721.013-3.686.005-7.371.021a.228.228,0,0,1-.245-.163q-1.009-2.252-2.028-4.5c-.021-.045-.038-.093-.058-.141.469-.11,24.349-.1,24.717.016-.257.578-.506,1.147-.761,1.713C47.874,30.944,47.433,31.908,47,32.876Z" transform="translate(-22.94 -27.1)" fill="#1278ae"/>
    </g>
    <g id="Group_580" data-name="Group 580" transform="translate(32.419 38.511)">
      <path id="Path_9884" data-name="Path 9884" d="M180.875,233.62c-.442,0-.824.016-1.2-.01-.111-.008-.213-.133-.321-.205.106-.057.211-.159.319-.163.505-.017,1.01-.007,1.537-.007v-.955a2.963,2.963,0,0,1-.524-.009c-.083-.016-.147-.127-.219-.2.077-.063.152-.18.229-.181q1.04-.021,2.08,0c.08,0,.156.115.234.176-.083.071-.157.182-.251.2a2.347,2.347,0,0,1-.495.009v.952c.506,0,1-.013,1.491.009.126.006.246.121.37.187a1.2,1.2,0,0,1-.382.182c-.356.025-.715.009-1.12.009v5.136l-.524.083c-.053.619-.112,1.25-.158,1.882-.016.222.022.449-.012.667a1.5,1.5,0,0,1-.2.406,1.531,1.531,0,0,1-.186-.425c-.03-.282.01-.57-.013-.853-.044-.56-.11-1.118-.168-1.684l-.486-.066C180.875,237.062,180.875,235.371,180.875,233.62Zm.356.023c0,.774-.005,1.527.009,2.279a.279.279,0,0,0,.193.192c.254.024.511.009.779.009v-2.48Z" transform="translate(-179.35 -231.882)" fill="#1278ae"/>
      <path id="Path_9885" data-name="Path 9885" d="M262.747,281.7c-.1.276-.214.55-.307.829a1.186,1.186,0,0,0-.05.358c0,.978,0,1.957,0,2.935a.693.693,0,0,1-.608.8,3.863,3.863,0,0,1-2.019,0,.717.717,0,0,1-.629-.826,16.637,16.637,0,0,1,.01-1.745,21.014,21.014,0,0,0-.216-2.518c-.009-.646.157-.915.788-1a8.272,8.272,0,0,1,1.95-.048c.81.086.984.356.992,1.179Zm-2.013,1.99V285.5a1.761,1.761,0,0,1-.269.014c-.294-.032-.587-.073-.881-.11-.111.673-.042.817.631.883a7.289,7.289,0,0,0,1.4-.06c.263-.025.388-.184.382-.484-.021-.89-.007-1.781-.009-2.672a1.612,1.612,0,0,0-.028-.231h-2.384c-.072.587-.059.609.55.745C260.315,283.629,260.511,283.652,260.735,283.688Zm1.473-2.112a4.674,4.674,0,0,1-2.85,0c-.056.649-.033.742.574.818a6.878,6.878,0,0,0,1.722,0C262.265,282.312,262.281,282.227,262.207,281.576Zm-.112-.485a2.917,2.917,0,0,0-2.61.025A3.023,3.023,0,0,0,262.1,281.091Z" transform="translate(-253.007 -276.835)" fill="#1278ae"/>
    </g>
  </g>
</svg>
