<svg xmlns="http://www.w3.org/2000/svg" width="14.505" height="20.63" viewBox="0 0 14.505 20.63">
  <g id="pin_3_" data-name="pin (3)" transform="translate(-76)">
    <g id="Group_332" data-name="Group 332" transform="translate(76)">
      <g id="Group_331" data-name="Group 331">
        <path id="Path_201" data-name="Path 201" d="M83.253,0a7.254,7.254,0,0,0-6.17,11.067l5.757,9.278a.6.6,0,0,0,.514.286h0a.6.6,0,0,0,.514-.294l5.611-9.368A7.254,7.254,0,0,0,83.253,0Zm5.192,10.348-5.1,8.517L78.11,10.43a6.048,6.048,0,1,1,10.335-.082Z" transform="translate(-76)" fill="#626267"/>
      </g>
    </g>
    <g id="Group_334" data-name="Group 334" transform="translate(79.626 3.626)">
      <g id="Group_333" data-name="Group 333">
        <path id="Path_202" data-name="Path 202" d="M169.626,90a3.626,3.626,0,1,0,3.626,3.626A3.63,3.63,0,0,0,169.626,90Zm0,6.052a2.426,2.426,0,1,1,2.422-2.426A2.427,2.427,0,0,1,169.626,96.052Z" transform="translate(-166 -90)" fill="#626267"/>
      </g>
    </g>
  </g>
</svg>
