<svg xmlns="http://www.w3.org/2000/svg" width="23.641" height="25.435" viewBox="0 0 23.641 25.435">
  <g id="logout" transform="translate(-41.814 -29.028)">
    <path id="Path_9761" data-name="Path 9761" d="M65.455,84.476a11.817,11.817,0,1,1-16.03-11.033,1.063,1.063,0,0,1,.491-.071.65.65,0,0,1,.531.556.664.664,0,0,1-.391.718c-.452.212-.926.384-1.361.626a10.184,10.184,0,0,0-5.346,7.406,10.444,10.444,0,1,0,14.086-7.931c-.294-.114-.558-.25-.619-.594a.684.684,0,0,1,.971-.735,11.39,11.39,0,0,1,3.277,1.88,11.781,11.781,0,0,1,4.245,7.4c.03.177.054.355.068.534C65.407,83.645,65.429,84.06,65.455,84.476Z" transform="translate(0 -41.816)" fill="#d84040"/>
    <path id="Path_9762" data-name="Path 9762" d="M214.466,34.948q0,1.774,0,3.549a2.272,2.272,0,0,1-4.526.349,1.657,1.657,0,0,1-.013-.255q0-3.648,0-7.3a2.268,2.268,0,0,1,4.536-.037C214.473,32.488,214.466,33.718,214.466,34.948Zm-3.18-.031q0,1.771,0,3.544a.914.914,0,1,0,1.819.015q0-3.544,0-7.088a.914.914,0,1,0-1.818.014Q211.285,33.159,211.287,34.917Z" transform="translate(-158.566)" fill="#d84040"/>
  </g>
</svg>
