<svg xmlns="http://www.w3.org/2000/svg" width="16.033" height="32.304" viewBox="0 0 16.033 32.304">
  <g id="women-icon" transform="translate(-278.227 -20.498)">
    <g id="Group_485" data-name="Group 485" transform="translate(278.227 26.663)">
      <g id="Group_484" data-name="Group 484" transform="translate(0)">
        <path id="Path_9755" data-name="Path 9755" d="M294.188,120.843c-.024-.068-2.374-6.771-2.744-7.847-.6-1.732-1.593-2.61-2.966-2.61H284.01c-1.373,0-2.371.878-2.966,2.61-.37,1.076-2.72,7.779-2.744,7.847a1.283,1.283,0,0,0,2.421.849c.076-.216,1.49-4.145,2.279-6.405-.083.675.155-.725-1.834,9.544a.714.714,0,0,0,.7.849h.979v9.306a1.539,1.539,0,1,0,3.079,0v-9.306h.665v9.306a1.539,1.539,0,1,0,3.079,0v-9.306h.979a.713.713,0,0,0,.7-.849c-1.971-10.176-1.754-8.994-1.821-9.544.8,2.278,2.167,6.192,2.242,6.405a1.283,1.283,0,1,0,2.421-.849Z" transform="translate(-278.227 -110.386)" fill="#757575"/>
      </g>
    </g>
    <g id="Group_487" data-name="Group 487" transform="translate(283.597 20.498)">
      <g id="Group_486" data-name="Group 486" transform="translate(0 0)">
        <circle id="Ellipse_77" data-name="Ellipse 77" cx="2.659" cy="2.659" r="2.659" fill="#757575"/>
      </g>
    </g>
  </g>
</svg>
