<svg xmlns="http://www.w3.org/2000/svg" width="20.603" height="26.02" viewBox="0 0 20.603 26.02">
  <g id="child" transform="translate(-39.313 -14.418)">
    <path id="Path_9763" data-name="Path 9763" d="M45.082,73.835c0-1.624-.014-3.248,0-4.872a4.962,4.962,0,0,0-1.494-3.618c-1.227-1.269-2.5-2.5-3.737-3.752a1.67,1.67,0,0,1-.314-2.086,1.369,1.369,0,0,1,1.565-.771,2.328,2.328,0,0,1,1.127.612c1.242,1.187,2.44,2.419,3.656,3.634a5.3,5.3,0,0,0,7.383.026c1.282-1.212,2.5-2.494,3.754-3.735a1.635,1.635,0,0,1,1.964-.4,1.5,1.5,0,0,1,.9,1.641,2.508,2.508,0,0,1-.613,1.129C58.186,62.79,57.065,63.9,55.935,65A5.751,5.751,0,0,0,54.1,69.408c.044,3.224.015,6.449.011,9.674a1.542,1.542,0,0,1-1.123,1.575,1.411,1.411,0,0,1-1.746-.485,1.964,1.964,0,0,1-.354-1.006c-.038-1.459-.013-2.918-.018-4.378a1.328,1.328,0,0,0-.905-1.348,1.054,1.054,0,0,0-1.3.418,2.247,2.247,0,0,0-.327,1.094c-.037,1.388-.013,2.777-.015,4.166A1.492,1.492,0,0,1,46.8,80.739a1.59,1.59,0,0,1-1.715-1.609C45.074,77.365,45.082,75.6,45.082,73.835Z" transform="translate(0 -40.331)" fill="#757575"/>
    <path id="Path_9764" data-name="Path 9764" d="M115.325,18.75a4.171,4.171,0,0,1-4.165,4.267,4.261,4.261,0,0,1-4.326-4.5,4.323,4.323,0,0,1,4.375-4.1A4.22,4.22,0,0,1,115.325,18.75Z" transform="translate(-61.492 0)" fill="#757575"/>
  </g>
</svg>
