<svg xmlns="http://www.w3.org/2000/svg" width="26.083" height="20.687" viewBox="0 0 26.083 20.687">
  <g id="organization" transform="translate(-3 -9)">
    <circle id="Ellipse_79" data-name="Ellipse 79" cx="3" cy="3" r="3" transform="translate(13 16)" fill="#626267"/>
    <path id="Path_9784" data-name="Path 9784" d="M29.141,23.293a4.891,4.891,0,0,0-.711-1.71.45.45,0,0,1,.018-.52l.658-.86-.715-.715-.86.658a.449.449,0,0,1-.52.018,4.891,4.891,0,0,0-1.71-.711.45.45,0,0,1-.355-.381L24.8,18H23.79l-.143,1.07a.45.45,0,0,1-.355.381,4.891,4.891,0,0,0-1.71.711.45.45,0,0,1-.52-.018l-.86-.658-.715.715.658.86a.45.45,0,0,1,.018.52,4.891,4.891,0,0,0-.711,1.71.45.45,0,0,1-.381.355L18,23.79V24.8l1.07.143a.45.45,0,0,1,.381.355,4.891,4.891,0,0,0,.711,1.71.45.45,0,0,1-.018.52l-.658.86.715.715.86-.658a.45.45,0,0,1,.52-.018,4.891,4.891,0,0,0,1.71.711.45.45,0,0,1,.355.381l.143,1.071H24.8l.143-1.07a.45.45,0,0,1,.355-.381,4.891,4.891,0,0,0,1.71-.711.45.45,0,0,1,.52.018l.86.658.715-.715-.658-.86a.45.45,0,0,1-.018-.52,4.891,4.891,0,0,0,.711-1.71.45.45,0,0,1,.381-.355l1.071-.143V23.79l-1.07-.143a.451.451,0,0,1-.381-.355ZM24.3,28.343A4.047,4.047,0,1,1,28.343,24.3,4.052,4.052,0,0,1,24.3,28.343Z" transform="translate(-8.254 -4.953)" fill="#626267"/>
    <path id="Path_9785" data-name="Path 9785" d="M55,29h2.7v2.7H55Z" transform="translate(-28.615 -11.006)" fill="#626267"/>
    <path id="Path_9786" data-name="Path 9786" d="M55,49h2.7v2.7H55Z" transform="translate(-28.615 -22.012)" fill="#626267"/>
    <path id="Path_9787" data-name="Path 9787" d="M55,9h2.7v2.7H55Z" transform="translate(-28.615)" fill="#626267"/>
    <path id="Path_9788" data-name="Path 9788" d="M3,29H5.7v2.7H3Z" transform="translate(0 -11.006)" fill="#626267"/>
    <path id="Path_9789" data-name="Path 9789" d="M3,49H5.7v2.7H3Z" transform="translate(0 -22.012)" fill="#626267"/>
    <path id="Path_9790" data-name="Path 9790" d="M3,9H5.7v2.7H3Z" fill="#626267"/>
    <path id="Path_9791" data-name="Path 9791" d="M12.8,11.45a.45.45,0,0,0-.45-.45H11v.9h.9v8.095H11v.9h.9v8.095H11v.9h1.349a.45.45,0,0,0,.45-.45V20.894h.45v-.9H12.8Z" transform="translate(-4.402 -1.101)" fill="#626267"/>
    <path id="Path_9792" data-name="Path 9792" d="M48.45,11.45v8.544H48v.9h.45v8.544a.45.45,0,0,0,.45.45h1.349v-.9h-.9V20.894h.9v-.9h-.9V11.9h.9V11H48.9A.45.45,0,0,0,48.45,11.45Z" transform="translate(-24.763 -1.101)" fill="#626267"/>
  </g>
</svg>
