<svg xmlns="http://www.w3.org/2000/svg" width="20.436" height="20.22" viewBox="0 0 20.436 20.22">
  <g id="communication" transform="translate(0 -2.711)">
    <g id="Group_549" data-name="Group 549" transform="translate(6.612 8.12)">
      <path id="Path_9872" data-name="Path 9872" d="M171.658,140.643h-4.808a1.2,1.2,0,1,1,0-2.4h4.809a1.2,1.2,0,1,1,0,2.4Z" transform="translate(-165.647 -138.239)" fill="#1e90ff"/>
      <path id="Path_9873" data-name="Path 9873" d="M171.658,231h-4.808a1.2,1.2,0,1,1,0-2.4h4.809a1.2,1.2,0,1,1,0,2.4Z" transform="translate(-165.647 -224.986)" fill="#1e90ff"/>
    </g>
    <path id="Path_9874" data-name="Path 9874" d="M1.2,22.931a1.2,1.2,0,0,1-1.2-1.2V6.317A3.606,3.606,0,0,1,3.606,2.711H16.83a3.606,3.606,0,0,1,3.606,3.606v9.617a3.606,3.606,0,0,1-3.606,3.606H7.339a4.948,4.948,0,0,0-3.354,1.3l-.048.048L2,22.624A1.2,1.2,0,0,1,1.2,22.931Zm2.4-17.815a1.2,1.2,0,0,0-1.2,1.2V19.03a7.4,7.4,0,0,1,4.935-1.893H16.83a1.2,1.2,0,0,0,1.2-1.2V6.317a1.2,1.2,0,0,0-1.2-1.2Z" fill="#166cbf"/>
  </g>
</svg>
