<svg xmlns="http://www.w3.org/2000/svg" width="18.192" height="24.256" viewBox="0 0 18.192 24.256">
  <g id="closed" transform="translate(-64)">
    <g id="Group_465" data-name="Group 465" transform="translate(64)">
      <g id="Group_464" data-name="Group 464">
        <path id="Path_9734" data-name="Path 9734" d="M214.16,280.98l-.319,2.867a.505.505,0,0,0,.5.561h2.021a.505.505,0,0,0,.5-.561l-.319-2.867a2,2,0,0,0,.827-1.626,2.021,2.021,0,0,0-4.043,0A2,2,0,0,0,214.16,280.98Zm1.194-2.636a1.007,1.007,0,0,1,.436,1.917.506.506,0,0,0-.282.511l.292,2.626h-.892l.292-2.626a.506.506,0,0,0-.282-.511,1.007,1.007,0,0,1,.436-1.917Z" transform="translate(-206.258 -264.194)" fill="#1885be"/>
        <path id="Path_9735" data-name="Path 9735" d="M81.687,9.1H80.171V7.075a7.075,7.075,0,0,0-14.149,0V9.1H64.505A.505.505,0,0,0,64,9.6V22.235a2.023,2.023,0,0,0,2.021,2.021h14.15a2.023,2.023,0,0,0,2.021-2.021V9.6A.505.505,0,0,0,81.687,9.1ZM67.032,7.075a6.064,6.064,0,0,1,12.128,0V9.1H78.149V7.075a5.053,5.053,0,0,0-10.107,0V9.1H67.032Zm10.107,0V9.1H69.053V7.075a4.043,4.043,0,1,1,8.085,0Zm4.043,15.16a1.012,1.012,0,0,1-1.011,1.011H66.021a1.012,1.012,0,0,1-1.011-1.011V10.107H81.182Z" transform="translate(-64)" fill="#1885be"/>
      </g>
    </g>
  </g>
</svg>
