<svg xmlns="http://www.w3.org/2000/svg" width="22.28" height="23.204" viewBox="0 0 22.28 23.204">
  <g id="technology_2_" data-name="technology (2)" transform="matrix(0.966, 0.259, -0.259, 0.966, 4.133, -0.225)">
    <path id="Path_9875" data-name="Path 9875" d="M16.781,13.379c-1.161-.993-2.34-1.595-3.487-.6l-.685.6c-.5.435-1.433,2.468-5.035-1.676S6.116,6.916,6.617,6.485l.689-.6c1.141-.994.71-2.245-.113-3.533l-.5-.78C5.87.287,4.97-.557,3.826.435l-.618.54A5.8,5.8,0,0,0,.946,4.815c-.413,2.729.889,5.854,3.871,9.283s5.894,5.154,8.656,5.124a5.818,5.818,0,0,0,4.115-1.7l.62-.541c1.141-.992.432-2-.73-3Z" transform="translate(0)" fill="#338a64"/>
  </g>
</svg>
