<svg xmlns="http://www.w3.org/2000/svg" width="33.133" height="33.133" viewBox="0 0 33.133 33.133">
  <g id="interface_4_" data-name="interface (4)" transform="translate(0 0.001)">
    <path id="Path_9772" data-name="Path 9772" d="M5.827,25.623a2.7,2.7,0,0,0-1.305.333A15.279,15.279,0,0,1,19.608,1.6.647.647,0,0,0,19.864.328,16.69,16.69,0,0,0,16.566,0a16.567,16.567,0,0,0-13,26.834,2.719,2.719,0,1,0,2.262-1.21Zm1.007,3.725a1.423,1.423,0,1,1,.417-1.007A1.414,1.414,0,0,1,6.834,29.347Zm0,0" fill="#fff"/>
    <path id="Path_9773" data-name="Path 9773" d="M214.272,36.276a2.712,2.712,0,1,0-.957.878,15.279,15.279,0,0,1-15.057,24.365A.647.647,0,1,0,198,62.788a16.7,16.7,0,0,0,3.267.322,16.567,16.567,0,0,0,13-26.834Zm-3.269-.5a1.424,1.424,0,1,1,1.007.417A1.414,1.414,0,0,1,211,35.776Zm0,0" transform="translate(-184.704 -29.977)" fill="#fff"/>
    <path id="Path_9774" data-name="Path 9774" d="M83.093,96.909a.647.647,0,0,0,.647.647h4.046a.647.647,0,0,0,.647-.647V95.654a10.135,10.135,0,0,0,2.429-1.007l.886.886a.647.647,0,0,0,.915,0l2.86-2.862a.647.647,0,0,0,0-.915l-.885-.885a10.134,10.134,0,0,0,1.007-2.429h1.25a.647.647,0,0,0,.647-.647V83.749a.647.647,0,0,0-.647-.647h-1.25a10.135,10.135,0,0,0-1.006-2.429l.88-.88a.647.647,0,0,0,0-.916l-2.862-2.86a.647.647,0,0,0-.915,0l-.879.879a10.134,10.134,0,0,0-2.429-1.007V74.647A.647.647,0,0,0,87.786,74H83.74a.647.647,0,0,0-.647.647V75.89A10.125,10.125,0,0,0,80.664,76.9l-.879-.879a.647.647,0,0,0-.915,0l-2.862,2.86a.647.647,0,0,0,0,.915l.88.88A10.132,10.132,0,0,0,75.881,83.1H74.634a.647.647,0,0,0-.647.647l0,4.046a.647.647,0,0,0,.647.647h1.25a10.134,10.134,0,0,0,1.007,2.429L76,91.756a.647.647,0,0,0,0,.915l2.86,2.862a.647.647,0,0,0,.458.19h0a.647.647,0,0,0,.458-.19l.886-.886a10.143,10.143,0,0,0,2.429,1.007Zm-2.175-3.622a.647.647,0,0,0-.809.086l-.788.788-1.945-1.947.787-.787a.647.647,0,0,0,.086-.809,8.858,8.858,0,0,1-1.226-2.958.647.647,0,0,0-.633-.511H75.279l0-2.752h1.11a.647.647,0,0,0,.633-.511,8.858,8.858,0,0,1,1.226-2.958.647.647,0,0,0-.086-.809l-.782-.782,1.947-1.945.781.782a.648.648,0,0,0,.809.086,8.854,8.854,0,0,1,2.958-1.226.648.648,0,0,0,.511-.633V75.294h2.752v1.1a.647.647,0,0,0,.511.633,8.862,8.862,0,0,1,2.958,1.226.647.647,0,0,0,.809-.086l.782-.781,1.947,1.945-.782.782a.647.647,0,0,0-.086.809A8.864,8.864,0,0,1,94.5,83.885a.647.647,0,0,0,.633.511h1.112v2.752H95.136a.647.647,0,0,0-.633.511,8.857,8.857,0,0,1-1.226,2.958.647.647,0,0,0,.086.809l.787.787L92.205,94.16l-.788-.788a.647.647,0,0,0-.809-.086,8.864,8.864,0,0,1-2.958,1.226.647.647,0,0,0-.511.633v1.117H84.387V95.145a.648.648,0,0,0-.511-.633,8.859,8.859,0,0,1-2.958-1.226Zm0,0" transform="translate(-69.197 -69.212)" fill="#fff"/>
    <path id="Path_9775" data-name="Path 9775" d="M184.066,178.718a5.347,5.347,0,1,0-5.347,5.347A5.353,5.353,0,0,0,184.066,178.718Zm-9.4,0a4.053,4.053,0,1,1,4.053,4.053A4.057,4.057,0,0,1,174.665,178.718Zm0,0" transform="translate(-162.152 -162.152)" fill="#fff"/>
    <path id="Path_9776" data-name="Path 9776" d="M338.725,19.1a.648.648,0,1,0-.457-.19A.652.652,0,0,0,338.725,19.1Zm0,0" transform="translate(-316.2 -16.657)" fill="#fff"/>
    <path id="Path_9777" data-name="Path 9777" d="M155.006,474.359a.647.647,0,1,0,.458.19A.652.652,0,0,0,155.006,474.359Zm0,0" transform="translate(-144.37 -443.662)" fill="#fff"/>
  </g>
</svg>
