<svg id="_006---Sync-To-Cloud" data-name="006---Sync-To-Cloud" xmlns="http://www.w3.org/2000/svg" width="37.656" height="37.653" viewBox="0 0 37.656 37.653">
  <path id="Shape" d="M38.393,6.191A6.278,6.278,0,0,0,33.628,4a.628.628,0,0,0,0,1.256,5.023,5.023,0,0,1,3.811,1.758.63.63,0,0,0,.954-.822Z" transform="translate(-12.288 -1.506)" fill="#1885be"/>
  <path id="Shape-2" data-name="Shape" d="M30.14,8.8A8.79,8.79,0,0,0,13.126,5.717,6.234,6.234,0,0,0,8.367,8.856,7.34,7.34,0,0,0,7.538,8.8a7.534,7.534,0,0,0-1.18,14.974,11.929,11.929,0,0,0-.075,1.35,12.557,12.557,0,1,0,25.113,0,11.929,11.929,0,0,0-.075-1.35A7.534,7.534,0,0,0,30.14,8.8Zm-11.3,27.625a11.3,11.3,0,1,1,11.3-11.3A11.3,11.3,0,0,1,18.839,36.425ZM31.126,22.531a12.557,12.557,0,0,0-24.573,0,6.278,6.278,0,0,1,.986-12.475,6.2,6.2,0,0,1,3.478,1.055.634.634,0,0,0,.7-1.055,7.434,7.434,0,0,0-2.047-.961,5.023,5.023,0,0,1,3.962-2.179h.182a4.96,4.96,0,0,1,3.014,1,.628.628,0,0,0,.753-1,6.222,6.222,0,0,0-3.1-1.218,7.534,7.534,0,0,1,14.4,3.1v.107a7.415,7.415,0,0,0-2.926,1.149.629.629,0,0,0,.7,1.042,6.2,6.2,0,0,1,3.478-1.042,6.278,6.278,0,0,1,.986,12.475Z" transform="translate(-0.011 -0.027)" fill="#1885be"/>
  <path id="Shape-3" data-name="Shape" d="M28.555,42.276H21.021a1.884,1.884,0,0,1-1.884-1.884V38.139l.81.816a.63.63,0,1,0,.892-.892L18.956,36.18a.628.628,0,0,0-.892,0l-1.884,1.884a.63.63,0,0,0,.892.892l.81-.816v2.254a3.139,3.139,0,0,0,3.139,3.139h7.534a.628.628,0,0,0,0-1.256Z" transform="translate(-5.96 -13.413)" fill="#1885be"/>
  <path id="Shape-4" data-name="Shape" d="M34.3,37.393V35.139A3.139,3.139,0,0,0,31.162,32H23.628a.628.628,0,1,0,0,1.256h7.534a1.884,1.884,0,0,1,1.884,1.884v2.254l-.81-.816a.63.63,0,0,0-.892.892l1.884,1.884a.628.628,0,0,0,.892,0L36,37.468a.63.63,0,0,0-.892-.892Z" transform="translate(-8.567 -11.926)" fill="#1885be"/>
</svg>
