<svg xmlns="http://www.w3.org/2000/svg" width="14.758" height="33.316" viewBox="0 0 14.758 33.316">
  <g id="teku" transform="translate(0.25 0.25)">
    <g id="Group_424" data-name="Group 424" transform="translate(0 0)">
      <path id="Path_8103" data-name="Path 8103" d="M119.553,84.138a.508.508,0,0,1,.3.109c.034.025.067.05.1.072a.044.044,0,0,0,.042,0c.008-.007.008-.028.006-.042a.079.079,0,0,0-.019-.037A.785.785,0,0,0,119.7,84a.367.367,0,0,0-.322-.035,1.021,1.021,0,0,0-.426.478c-.005.01.007.031.012.048.014,0,.032,0,.041-.014a.632.632,0,0,0,.048-.06A.625.625,0,0,1,119.553,84.138Zm1.629.022c-.027-.069-.049-.143-.083-.208-.015-.027-.055-.042-.083-.063L121,83.9A.478.478,0,0,0,121.181,84.16Zm-.527-.79c-.016.068.022.125.1.162A.138.138,0,0,0,120.654,83.37Z" transform="translate(-112.412 -79.265)" fill="#626267" stroke="#626267" stroke-width="0.5"/>
      <path id="Path_8104" data-name="Path 8104" d="M51.6,38.462a.363.363,0,0,0,.054.371.575.575,0,0,1-.094.8,3.965,3.965,0,0,1-.324.264c-.041.034-.093.067-.111.112a.258.258,0,0,0,0,.16c.041.147.087.294.143.437a2.277,2.277,0,0,0,.146.286.1.1,0,0,0,.117.038c.1-.028.2-.062.3-.093.322-.1.642-.206.967-.3a6.252,6.252,0,0,1,.662-.138,1.11,1.11,0,0,1,.339,0c.046.007.084.073.122.115a1.388,1.388,0,0,0,.186.211,3.246,3.246,0,0,1,.627.649c.165.21.341.413.509.621.047.058.978,1.418,1.018,1.48-.008.007-.068.022-.076.03-.031-.027-.912-1.35-.939-1.381-.22-.264-.431-.536-.66-.792-.246-.276-.507-.538-.762-.806a.239.239,0,0,0-.246-.067c-.395.094-.8.169-1.184.281a12.878,12.878,0,0,0-2,.768c-.09.043-.177.09-.269.132a.057.057,0,0,1-.089-.051.686.686,0,0,0-.168-.37c-.08-.1-.153-.209-.228-.315-.016-.021-.029-.043-.046-.063a.146.146,0,0,0-.2-.058c-.122.048-.242.1-.363.154a.256.256,0,0,1-.057.018.568.568,0,0,0-.274.106.428.428,0,0,1-.184.043c-.158.024-.315.051-.474.066A.544.544,0,0,1,47.58,41a1.535,1.535,0,0,1-.154-.19c-.021-.029-.037-.039-.067-.017v-.348c.055.027.06-.017.07-.05a1.294,1.294,0,0,1,.242-.463.168.168,0,0,0,.035-.056.611.611,0,0,1,.209-.271,2.779,2.779,0,0,0,.229-.21,3.351,3.351,0,0,1,1.216-.862c.022-.009.033-.046.049-.069Q50.506,38.463,51.6,38.462Z" transform="translate(-47.36 -38.46)" fill="#626267" stroke="#626267" stroke-width="0.5"/>
      <path id="Path_8105" data-name="Path 8105" d="M148.926,112.57c-.051-.026-.06,0-.063.047-.014.3-.018.6-.048.892-.037.365-.1.728-.147,1.091a.214.214,0,0,0,0,.024.394.394,0,0,1-.3.387c-.107.037-.215.075-.319.118a1.315,1.315,0,0,0-.142.084.861.861,0,0,1-.131.07c-.173.061-.353.105-.519.182a2.228,2.228,0,0,1-.555.091c0-.006.014-.024.012-.03.11-.032.393-.1.5-.132a4.221,4.221,0,0,0,1.23-.547.3.3,0,0,0,.147-.231c.037-.356.082-.713.122-1.069a22.839,22.839,0,0,0,.084-3.043c-.005-.214,0-.428-.014-.642-.005-.133-.027-.266-.038-.4s-.02-.275-.033-.412c-.016-.173-.034-.345-.051-.518-.015-.143-.027-.286-.044-.429-.023-.2-.044-.4-.076-.593-.054-.336-.121-.67-.175-1.006-.083-.515-.22-1.018-.35-1.524-.2-.779-.392-1.559-.6-2.335-.155-.577-.331-1.148-.5-1.719-.217-.72-.426-1.444-.664-2.158-.162-.487-.367-.96-.553-1.439-.164-.42-.313-.845-.494-1.258a29.868,29.868,0,0,0-1.534-3.065c-.068-.115-.133-.232-.2-.348a.267.267,0,0,1-.016-.069.224.224,0,0,1,.148.129.91.91,0,0,1,.1.2.576.576,0,0,0,.154.246.735.735,0,0,1,.186.313,1.108,1.108,0,0,0,.2.371.2.2,0,0,1,.021.042c.057.1.115.2.168.308.044.086.08.176.12.265.054.121.109.241.163.363.017.04.03.082.048.122s.046.083.069.124c.006.012.017.022.023.035.077.17.153.341.231.51.02.043.05.081.073.123a.439.439,0,0,1,.044.1c.027.1.047.2.076.3a.7.7,0,0,0,.077.194,2.994,2.994,0,0,1,.282.639c.058.161.128.318.2.473a1.1,1.1,0,0,1,.115.369.157.157,0,0,0,.063.122.494.494,0,0,1,.149.241c.093.27.192.537.276.81.1.318.181.642.277.961.111.371.229.739.34,1.11.023.077.027.159.042.239a.673.673,0,0,0,.027.079c.039.112.081.222.118.335.017.055.025.112.038.168.037.156.071.313.111.47a1.98,1.98,0,0,1,.083.3,1.279,1.279,0,0,0,.125.414,1.331,1.331,0,0,1,.059.228l.033.133.058.224.007.029c.035.118.069.235.1.353.01.038.011.079.019.118a.651.651,0,0,0,.028.1.808.808,0,0,1,.073.23,1.72,1.72,0,0,0,.069.254c.018.07.03.143.044.215,0,.017,0,.037,0,.053.03.1.065.195.092.293s.044.181.061.273a1.781,1.781,0,0,1,.028.219.421.421,0,0,0,.067.226.171.171,0,0,1,.028.084,3.52,3.52,0,0,0,.12.689,6.237,6.237,0,0,1,.108.873.16.16,0,0,0,.029.08.4.4,0,0,1,.075.254,6.172,6.172,0,0,0,.112,1.077,4.2,4.2,0,0,1,.035.537q.007.129.011.258c0,.042.02.064.063.06Q148.927,111.25,148.926,112.57Z" transform="translate(-134.668 -87.643)" fill="#626267" stroke="#626267" stroke-width="0.5"/>
      <path id="Path_8106" data-name="Path 8106" d="M109.933,154.911c-.008-.092-.01-.175-.024-.254a1.511,1.511,0,0,0-.059-.218c-.016-.048-.049-.058-.1-.034a7.937,7.937,0,0,1-.955.432.164.164,0,0,0-.08.066,2.02,2.02,0,0,0-.254.769,1.244,1.244,0,0,0,.141.689,3.28,3.28,0,0,0,.453.647.936.936,0,0,1,.209.353.638.638,0,0,1-.252.65.856.856,0,0,1-.442.151,2.981,2.981,0,0,1-1.271-.187,3.064,3.064,0,0,1-1.952-1.9,4.073,4.073,0,0,1-.278-1.392.2.2,0,0,0-.107-.18,3.523,3.523,0,0,1-.758-.554c-.049-.05-.093-.105-.143-.154-.016-.015-.044-.016-.066-.025-.005.022-.021.046-.016.065a3.036,3.036,0,0,0,.162.6c.008.016,0,.042-.007.063-.015-.005-.037-.007-.044-.018a1.486,1.486,0,0,1-.255-.708.42.42,0,0,1,.333-.388.228.228,0,0,1,.071.016.308.308,0,0,1-.03.066.861.861,0,0,1-.079.074c-.066.062-.069.09,0,.151.111.1.22.2.339.286a4.644,4.644,0,0,0,1.684.824,3.912,3.912,0,0,0,1.075.128,5.481,5.481,0,0,0,2.454-.685c.078-.042.082-.061.034-.135-.062-.1-.127-.189-.187-.286-.011-.017,0-.046,0-.069.021,0,.048,0,.062.015a1.109,1.109,0,0,1,.437.894A.369.369,0,0,1,109.933,154.911Zm-3.3,1.7a1.282,1.282,0,0,0-.635.156c-.079.045-.087.084-.028.152a3.156,3.156,0,0,0,1.457.968,3.225,3.225,0,0,0,1.063.2.774.774,0,0,0,.426-.137.369.369,0,0,0,.13-.5,1.814,1.814,0,0,0-.18-.282,1.274,1.274,0,0,0-.636-.468,1.139,1.139,0,0,0-.626,0,.43.43,0,0,0-.082.041.291.291,0,0,0,.048.076.922.922,0,0,1,.3.391.327.327,0,0,1,.007.086.265.265,0,0,1-.077-.039c-.058-.061-.107-.13-.164-.191A1.261,1.261,0,0,0,106.638,156.612Zm.834-.493c.146-.012.28-.019.412-.035a.881.881,0,0,0,.4-.134.1.1,0,0,0,.047-.088c.008-.137.025-.274.031-.411,0-.081.061-.145.069-.218.01-.1.08-.165.1-.254,0-.02.014-.051.005-.059a.086.086,0,0,0-.063-.011c-.277.047-.551.107-.83.14a4.486,4.486,0,0,1-.933.005,3.359,3.359,0,0,1-.761-.147c-.218-.072-.43-.157-.645-.237-.061-.023-.079-.017-.081.048a.586.586,0,0,0,.02.158.8.8,0,0,0,.329.5c.129.087.252.184.384.267a2.224,2.224,0,0,0,.553.282,1.507,1.507,0,0,1,.2.07,1.425,1.425,0,0,0,.43.094C107.254,156.1,107.369,156.109,107.471,156.119Z" transform="translate(-98.677 -142.882)" fill="#626267" stroke="#626267" stroke-width="0.5"/>
      <path id="Path_8107" data-name="Path 8107" d="M121.129,340.525l-.2.084a.346.346,0,0,0-.108.051.564.564,0,0,0-.16.364.108.108,0,0,1-.027.069.519.519,0,0,0-.14.253c-.036.11-.065.222-.107.329a2.387,2.387,0,0,1-.122.248c-.047.087-.1.169-.144.258a1.364,1.364,0,0,1-.657.671.5.5,0,0,0-.286.386c-.054.288-.128.572-.192.858s-.131.552-.175.831a1.79,1.79,0,0,1-.165.446c-.03.069-.065.134-.1.206,0-.088,0-.17.013-.25s.037-.176.048-.263c.014-.107.018-.215.027-.323a.073.073,0,0,1,0-.029,1.831,1.831,0,0,0,.092-.475,9.6,9.6,0,0,0,.177-1.129.439.439,0,0,0-.109-.367.969.969,0,0,1-.244-.677c0-.3.005-.6.012-.894a.4.4,0,0,1,.032-.133.17.17,0,0,0-.168-.251c-.215-.01-.43-.028-.644-.048-.257-.024-.514-.048-.769-.083-.157-.022-.312-.067-.469-.094-.226-.039-.454-.066-.679-.111-.182-.037-.359-.093-.538-.141-.051-.014-.083-.039-.059-.11l.282.055c.382.079.762.165,1.146.235.288.053.578.1.868.129q.4.047.812.062c.327.013.655.014.983.01a8.517,8.517,0,0,0,1.293-.106c.135-.022.27-.051.4-.076l.058-.008C121.123,340.509,121.126,340.517,121.129,340.525Zm-1.842,2.16a.372.372,0,0,0,.324-.142,2.3,2.3,0,0,0,.548-.9,2.267,2.267,0,0,0,.063-.345c0-.022-.026-.048-.039-.071-.017.016-.041.028-.051.048a4.724,4.724,0,0,1-.516.8.859.859,0,0,1-.47.333c-.054.014-.111.014-.165.024a.079.079,0,0,0-.053.03.065.065,0,0,0,.014.058A.407.407,0,0,0,119.287,342.685Z" transform="translate(-109.057 -312.622)" fill="#626267" stroke="#626267" stroke-width="0.5"/>
      <path id="Path_8108" data-name="Path 8108" d="M53.023,84.992a1.733,1.733,0,0,1-.11-.249,1.078,1.078,0,0,0-.177-.345,1.06,1.06,0,0,1-.134-.267c-.06-.167-.106-.339-.162-.507a.785.785,0,0,0-.061-.107q-.5-.973-1.007-1.947c-.076-.147-.146-.3-.221-.445-.138-.272-.273-.547-.417-.816-.236-.444-.469-.89-.719-1.325-.106-.185-.177-.384-.277-.569-.081-.152-.167-.3-.25-.451-.175-.323-.352-.644-.524-.969a1.42,1.42,0,0,0-.209-.374c-.013-.013-.007-.041-.013-.062a1.569,1.569,0,0,0-.053-.156.978.978,0,0,0-.077-.139c-.026-.039-.057-.074-.085-.111a.568.568,0,0,1-.061-.08c-.037-.07-.069-.143-.105-.216s-.067-.15-.11-.219a.746.746,0,0,1-.041-.716,4.368,4.368,0,0,1,.515-.834,2.93,2.93,0,0,1,.557-.608c.179-.147.342-.314.523-.458.241-.191.494-.367.741-.549.033-.025.264-.3.3-.26s-.186.327-.24.364c-.178.122-.36.239-.536.364a6.784,6.784,0,0,0-1.255,1.128,2.678,2.678,0,0,0-.466.722,1.784,1.784,0,0,0-.119.487.39.39,0,0,0,.046.231c.187.348.375.7.563,1.045.042.078.066.079.141.006l.716-.693c.206-.2.411-.4.618-.595a.42.42,0,0,1,.1-.08.112.112,0,0,1,.09,0c.036.021.03.062.007.1a.278.278,0,0,1-.043.049l-.884.846c-.182.175-.362.35-.543.526-.056.054-.061.1-.018.178.132.247.265.493.4.74.19.358.378.717.568,1.077.048.09.079.1.149.016a5.093,5.093,0,0,1,.937-.819.853.853,0,0,1,.369-.149c.025,0,.073.01.075.021a.216.216,0,0,1-.016.1c-.006.015-.036.024-.057.028a1.2,1.2,0,0,0-.48.25,7.515,7.515,0,0,0-.788.738c-.05.054-.051.078-.009.156q.372.7.742,1.4c.094.178.186.358.279.537.052.1.08.107.17.04a5.845,5.845,0,0,0,.856-.776.672.672,0,0,0,.066-.1c.01-.016.016-.033.027-.047a.084.084,0,0,1,.121-.024c.048.032.038.073.011.109-.08.1-.159.211-.249.307a6.071,6.071,0,0,1-.754.657l-.043.033c-.058.046-.063.067-.028.133.1.184.2.366.292.551q.384.746.765,1.494a.447.447,0,0,0,.349.271.4.4,0,0,0,.214-.037c.208-.1.411-.213.617-.321.074-.039.149-.077.225-.113.045-.022.087-.02.111.03s-.005.084-.048.106c-.124.063-.251.122-.376.186s-.26.143-.39.21a2.45,2.45,0,0,1-.234.107.279.279,0,0,0-.133.46,1.272,1.272,0,0,1,.259.559.514.514,0,0,0,.037.1C53.065,84.96,53.059,84.98,53.023,84.992Z" transform="translate(-48.068 -69.124)" fill="#626267" stroke="#626267" stroke-width="0.5"/>
      <path id="Path_8109" data-name="Path 8109" d="M100.436,116.068a.357.357,0,0,1-.065.021,2.369,2.369,0,0,0-1.55.8c-.039.044-.065.1-.1.148a.252.252,0,0,1-.063.045.2.2,0,0,1-.017-.065.831.831,0,0,1,.259-.519c.075-.08.081-.092,0-.168a4.06,4.06,0,0,1-.681-.834,1.294,1.294,0,0,1-.13-1.194.83.83,0,0,1,.069-.14.583.583,0,0,1,.784-.221,1.785,1.785,0,0,1,.7.606,2.852,2.852,0,0,1,.473,1.186c.009.055.018.111.028.165.018.1.039.113.14.119.052,0,.1.014.154.02C100.436,116.048,100.436,116.058,100.436,116.068Zm-2.01-.5c.009-.037.016-.061.02-.086a.934.934,0,0,1,.167-.43.348.348,0,0,1,.2-.148.468.468,0,0,1,.417.088,1.65,1.65,0,0,1,.544.928c.037.127.027.13.157.09a.105.105,0,0,0,.08-.128q-.014-.082-.03-.164a2.728,2.728,0,0,0-.443-1.088,1.616,1.616,0,0,0-.671-.572.441.441,0,0,0-.589.157.986.986,0,0,0-.121.284,1.3,1.3,0,0,0,.216,1.024A.336.336,0,0,0,98.427,115.565Z" transform="translate(-93.37 -106.98)" fill="#626267" stroke="#626267" stroke-width="0.5"/>
      <path id="Path_8110" data-name="Path 8110" d="M128.118,107.21c0,.048,0,.1,0,.143a.139.139,0,0,0,.1.158c.017.005.027.031.041.048-.021.007-.047.026-.062.019a.9.9,0,0,0-.565.02,1.264,1.264,0,0,0-.717.473.229.229,0,0,1-.069.039c-.005-.028-.023-.061-.014-.085a1.159,1.159,0,0,1,.088-.183c.059-.1.059-.132-.024-.216a3.29,3.29,0,0,1-.622-.926,1.1,1.1,0,0,1,.178-1.134.63.63,0,0,1,.718-.128,1.594,1.594,0,0,1,.719.746A2.25,2.25,0,0,1,128.118,107.21Zm-.13-.016h0c-.01-.1-.016-.195-.029-.292a1.985,1.985,0,0,0-.319-.866,1.349,1.349,0,0,0-.515-.465.444.444,0,0,0-.511.048.818.818,0,0,0-.284.762,1.809,1.809,0,0,0,.1.336.3.3,0,0,0,.049.071.526.526,0,0,0,.065-.071c.038-.065.065-.137.109-.2a.465.465,0,0,1,.735-.08,1.016,1.016,0,0,1,.222.309,1.469,1.469,0,0,1,.154.579.085.085,0,0,0,.045.065.125.125,0,0,0,.178-.125C127.989,107.241,127.988,107.218,127.988,107.194Z" transform="translate(-118.982 -99.263)" fill="#626267" stroke="#626267" stroke-width="0.5"/>
      <path id="Path_8111" data-name="Path 8111" d="M115.207,273.717c.012.092.031.41.043.5s.042.111.122.1a1.691,1.691,0,0,0,1.021-.41.109.109,0,0,1,.019-.015.088.088,0,0,1,.122.021c.032.042,0,.068-.027.091a1.8,1.8,0,0,1-.86.424c-.084.016-.17.026-.255.036s-.1.034-.1.112c.016.285.038.57.05.855.012.308.016.616.02.923,0,.154,0,.308,0,.462,0,.1.016.117.1.141a3.26,3.26,0,0,0,1.536.057,1.8,1.8,0,0,1,.229-.037.1.1,0,0,1,.069.044.063.063,0,0,1-.007.062.264.264,0,0,1-.111.065,4.147,4.147,0,0,1-1.437.031c-.094-.016-.186-.045-.279-.069s-.1-.011-.106.078c-.005.292,0,.584-.016.876-.015.352-.038.7-.059,1.054,0,.02-.01.632-.025.646s-.039-.006-.058-.008-.031,0-.032-.013c0-.049,0-.686,0-.736.013-.119.037-.237.042-.356.013-.354.015-.707.026-1.061,0-.154.033-.307.033-.46,0-.216-.016-.43-.024-.646-.011-.29-.027-.579-.028-.868a6.761,6.761,0,0,0-.061-1.088,1.426,1.426,0,0,1,0-.258c0-.082,0-.164.009-.246,0-.03-.03-.369-.022-.4C115.153,273.632,115.2,273.716,115.207,273.717Z" transform="translate(-108.95 -252.136)" fill="#626267" stroke="#626267" stroke-width="0.5"/>
      <path id="Path_8112" data-name="Path 8112" d="M102.755,217.179a.821.821,0,0,1-.145-.409c-.015-.1-.006-.212-.02-.316-.016-.126-.049-.25-.069-.376-.011-.072-.006-.147-.016-.22s-.032-.123-.041-.186a4.051,4.051,0,0,1-.065-.51,2.9,2.9,0,0,0-.09-.372c-.027-.194-.063-.386-.1-.579a.2.2,0,0,0-.011-.047,3.816,3.816,0,0,1-.135-.562.961.961,0,0,1-.01-.117.276.276,0,0,0-.021-.066.59.59,0,0,1-.037-.1c-.016-.08-.024-.164-.043-.244a.967.967,0,0,0-.069-.215.972.972,0,0,1-.107-.356,1.188,1.188,0,0,0-.066-.253c-.01-.03-.046-.053-.055-.083-.017-.06-.025-.123-.037-.185-.008-.04-.016-.08-.026-.12,0-.011-.156-.434-.155-.443,0-.027.037,0,.044-.032.018.016.157.394.164.415q.159.515.312,1.032c.035.119.064.239.1.358.018.067.048.086.114.068.454-.123.917-.219,1.361-.379.064-.023.092-.009.111.049s.005.073-.064.1a12.572,12.572,0,0,1-1.247.343c-.047.011-.093.023-.139.037-.069.019-.077.034-.06.1.045.186.1.371.133.559.106.545.207,1.09.308,1.636.016.085.028.1.122.077.312-.06.622-.124.935-.18.127-.023.258-.029.387-.042.069-.007.1.012.1.061a.108.108,0,0,1-.106.1,3.192,3.192,0,0,0-.363.028c-.309.055-.615.119-.923.18-.084.016-.105.043-.1.129.033.29.069.579.1.869C102.741,217.01,102.748,217.094,102.755,217.179Z" transform="translate(-96.497 -195.585)" fill="#626267" stroke="#626267" stroke-width="0.5"/>
      <path id="Path_8113" data-name="Path 8113" d="M127.591,196.046a.148.148,0,0,1-.135.1c-.223.011-.447.026-.671.025a2.083,2.083,0,0,1-1.364-.525,2.848,2.848,0,0,1-.745-.972c-.014-.029-.034-.055-.045-.084a.135.135,0,0,1-.007-.069c0-.011.022-.023.035-.026s.023.013.028.023a2.85,2.85,0,0,0,.744.883,2.812,2.812,0,0,0,1.18.562c.267.057.541.078.813.109A.647.647,0,0,0,127.591,196.046Z" transform="translate(-117.561 -180.237)" fill="#626267" stroke="#626267" stroke-width="0.5"/>
      <path id="Path_8114" data-name="Path 8114" d="M130.848,137.786a.43.43,0,0,1,.021-.069,2.018,2.018,0,0,0,.116-.242.939.939,0,0,0,.034-.252.2.2,0,0,0-.129-.18.831.831,0,0,0-.951.112,3.488,3.488,0,0,0-.26.248c-.026.025-.048.052-.086.023s-.027-.058-.009-.09a1.182,1.182,0,0,1,.938-.618.72.72,0,0,1,.549.142.36.36,0,0,1,.138.389,1.16,1.16,0,0,1-.339.546Z" transform="translate(-122.055 -127.731)" fill="#626267" stroke="#626267" stroke-width="0.5"/>
      <path id="Path_8115" data-name="Path 8115" d="M95.931,107.374a.526.526,0,0,1-.1-.051.59.59,0,0,0-.79.081,1.874,1.874,0,0,0-.172.221c-.032.041-.066.081-.1.122l-.016-.01a.325.325,0,0,1,0-.043,1.228,1.228,0,0,1,.378-.587.424.424,0,0,1,.543-.036,1.243,1.243,0,0,1,.2.154.625.625,0,0,1,.08.125Z" transform="translate(-90.419 -100.728)" fill="#626267" stroke="#626267" stroke-width="0.5"/>
      <path id="Path_8116" data-name="Path 8116" d="M119.562,89.847a.625.625,0,0,0-.494.282.635.635,0,0,1-.048.06c-.009.009-.027.009-.041.014,0-.016-.017-.037-.012-.048a1.021,1.021,0,0,1,.426-.478.367.367,0,0,1,.322.035.8.8,0,0,1,.281.239.1.1,0,0,1,.019.037.053.053,0,0,1-.006.042.049.049,0,0,1-.042,0c-.036-.022-.069-.048-.1-.072A.518.518,0,0,0,119.562,89.847Z" transform="translate(-112.421 -84.975)" fill="#626267" stroke="#626267" stroke-width="0.5"/>
      <path id="Path_8117" data-name="Path 8117" d="M141.511,89.311a.478.478,0,0,1-.181-.255l.015-.016c.028.021.069.035.083.063A2.21,2.21,0,0,1,141.511,89.311Z" transform="translate(-132.742 -84.417)" fill="#626267" stroke="#626267" stroke-width="0.5"/>
      <path id="Path_8118" data-name="Path 8118" d="M137.509,83.37a.14.14,0,0,1,.1.162C137.531,83.5,137.494,83.438,137.509,83.37Z" transform="translate(-129.267 -79.265)" fill="#626267" stroke="#626267" stroke-width="0.5"/>
      <path id="Path_8119" data-name="Path 8119" d="M155.689,352.88a.415.415,0,0,1-.347-.163.068.068,0,0,1-.014-.058.079.079,0,0,1,.053-.03c.055-.01.112-.01.165-.024a.859.859,0,0,0,.47-.333,4.758,4.758,0,0,0,.516-.8c.01-.02.034-.032.051-.048.014.024.042.049.039.071a1.944,1.944,0,0,1-.611,1.247A.367.367,0,0,1,155.689,352.88Z" transform="translate(-145.458 -322.817)" fill="#626267" stroke="#626267" stroke-width="0.5"/>
    </g>
  </g>
</svg>
