<svg xmlns="http://www.w3.org/2000/svg" width="16" height="16" viewBox="0 0 16 16">
  <g id="Group_555" data-name="Group 555" transform="translate(-19 -562)">
    <g id="Group_554" data-name="Group 554">
      <path id="checked-checkbox" d="M1,0H15a1,1,0,0,1,1,1V15a1,1,0,0,1-1,1H1a1,1,0,0,1-1-1V1A1,1,0,0,1,1,0Z" transform="translate(19 562)" fill="#20a9db"/>
    </g>
    <g id="check" transform="translate(-203 -105)">
      <path id="Path_207" data-name="Path 207" d="M10.34,20.639c-.488-.263-1.032.244-1.351.544-.732.713-1.351,1.539-2.045,2.289-.769.826-1.482,1.651-2.271,2.458a6.77,6.77,0,0,0-1.238,1.5,24.631,24.631,0,0,0-2.008-1.952c-.544-.413-1.445-.713-1.426.281.038,1.295,1.182,2.683,2.027,3.565a2.143,2.143,0,0,0,1.37.788c.657.038,1.332-.751,1.726-1.182.694-.751,1.257-1.6,1.9-2.364.826-1.013,1.67-2.008,2.477-3.04C10,22.891,11.6,21.315,10.34,20.639ZM.826,25.687a.142.142,0,0,0-.075.019.913.913,0,0,1-.206-.075h0Q.629,25.574.826,25.687Z" transform="translate(225 649.372)" fill="#fff"/>
    </g>
  </g>
</svg>
