<?xml version="1.0" encoding="iso-8859-1"?>
<!-- Generator: Adobe Illustrator 19.0.0, SVG Export Plug-In . SVG Version: 6.00 Build 0)  -->
<svg xmlns="http://www.w3.org/2000/svg" xmlns:xlink="http://www.w3.org/1999/xlink" version="1.1" id="Layer_1" viewBox="0 0 512 512" style="enable-background:new 0 0 512 512;" xml:space="preserve" width="512" height="512">
<g>
	<path d="M376,0H136c-24.813,0-45,20.187-45,45v422c0,24.813,20.187,45,45,45h240c24.813,0,45-20.187,45-45V45   C421,20.187,400.813,0,376,0z M136,30h240c8.271,0,15,6.729,15,15v15.5H121V45C121,36.729,127.729,30,136,30z M121,421.5v-30h70v30   H121z M221,391.5h70v30h-70V391.5z M321,391.5h70v30h-70V391.5z M121,361.5v-271h270v271H121z M376,482H136   c-8.271,0-15-6.729-15-15v-15.5h270V467C391,475.271,384.271,482,376,482z" fill="none" stroke="#000" stroke-width="1"/>
	<path d="M301,194.896V165.5c0-24.813-20.187-45-45-45s-45,20.187-45,45v29.396c-19.006,14.144-30.5,36.632-30.5,60.604v15h151v-15   C331.5,231.527,320.007,209.039,301,194.896z M213.062,240.5c3.58-10.192,10.739-18.988,20.39-24.512l7.548-4.321V165.5   c0-8.271,6.729-15,15-15s15,6.729,15,15v46.167l7.548,4.321c9.651,5.523,16.81,14.319,20.39,24.512H213.062z" fill="none" stroke="#000" stroke-width="1"/>
	<rect width="151" height="30"/>
</g>
</svg>