<svg xmlns="http://www.w3.org/2000/svg" width="18.174" height="21.784" viewBox="0 0 18.174 21.784">
  <g id="user_1_" data-name="user (1)" transform="translate(0 0)">
    <path id="Path_9732" data-name="Path 9732" d="M92.278,10.493a5.077,5.077,0,0,0,3.71-1.537,5.077,5.077,0,0,0,1.537-3.71,5.077,5.077,0,0,0-1.537-3.71,5.245,5.245,0,0,0-7.419,0,5.077,5.077,0,0,0-1.537,3.709,5.077,5.077,0,0,0,1.537,3.71A5.078,5.078,0,0,0,92.278,10.493ZM89.472,2.44a3.969,3.969,0,0,1,5.614,0,3.793,3.793,0,0,1,1.163,2.807,3.793,3.793,0,0,1-1.163,2.807,3.968,3.968,0,0,1-5.614,0,3.792,3.792,0,0,1-1.163-2.807A3.793,3.793,0,0,1,89.472,2.44Zm0,0" transform="translate(-83.329)" fill="#1885be"/>
    <path id="Path_9733" data-name="Path 9733" d="M18.13,253.544a12.96,12.96,0,0,0-.176-1.376,10.846,10.846,0,0,0-.339-1.384,6.837,6.837,0,0,0-.569-1.291,4.865,4.865,0,0,0-.858-1.118,3.783,3.783,0,0,0-1.232-.774,4.259,4.259,0,0,0-1.573-.285,1.6,1.6,0,0,0-.853.362c-.256.167-.555.359-.888.573a5.09,5.09,0,0,1-1.149.506,4.464,4.464,0,0,1-2.812,0,5.075,5.075,0,0,1-1.149-.506c-.331-.211-.63-.4-.889-.573a1.6,1.6,0,0,0-.852-.362,4.253,4.253,0,0,0-1.573.285,3.779,3.779,0,0,0-1.233.774,4.867,4.867,0,0,0-.858,1.118,6.848,6.848,0,0,0-.569,1.291,10.869,10.869,0,0,0-.338,1.384,12.871,12.871,0,0,0-.176,1.377c-.029.416-.044.849-.044,1.286a3.617,3.617,0,0,0,1.074,2.737,3.867,3.867,0,0,0,2.768,1.01H14.331a3.867,3.867,0,0,0,2.768-1.01,3.616,3.616,0,0,0,1.074-2.737c0-.439-.015-.872-.044-1.287Zm-1.911,3.1a2.6,2.6,0,0,1-1.888.658H3.842a2.6,2.6,0,0,1-1.888-.658,2.362,2.362,0,0,1-.678-1.812c0-.408.013-.811.04-1.2a11.61,11.61,0,0,1,.16-1.24,9.588,9.588,0,0,1,.3-1.22,5.575,5.575,0,0,1,.463-1.05,3.607,3.607,0,0,1,.63-.826,2.509,2.509,0,0,1,.82-.51,2.938,2.938,0,0,1,1.005-.194c.045.024.124.069.253.153.262.171.565.366.9.58a6.324,6.324,0,0,0,1.443.645,5.739,5.739,0,0,0,3.6,0,6.334,6.334,0,0,0,1.444-.645c.342-.219.636-.408.9-.579.129-.084.209-.129.253-.153a2.939,2.939,0,0,1,1.006.194,2.512,2.512,0,0,1,.82.51,3.6,3.6,0,0,1,.63.826,5.558,5.558,0,0,1,.463,1.049,9.567,9.567,0,0,1,.3,1.22,11.706,11.706,0,0,1,.16,1.24h0c.027.385.041.788.041,1.2a2.362,2.362,0,0,1-.678,1.812Zm0,0" transform="translate(0 -236.794)" fill="#1885be"/>
  </g>
</svg>
